<?xml version="1.0" encoding="UTF-8" standalone="no"?>
<!-- Created with Inkscape (http://www.inkscape.org/) -->

<svg
   width="48"
   height="48"
   viewBox="0 0 48 48"
   version="1.1"
   id="svg1"
   inkscape:version="1.3.2 (091e20e, 2023-11-25, custom)"
   xmlns:inkscape="http://www.inkscape.org/namespaces/inkscape"
   xmlns:sodipodi="http://sodipodi.sourceforge.net/DTD/sodipodi-0.dtd"
   xmlns="http://www.w3.org/2000/svg"
   xmlns:svg="http://www.w3.org/2000/svg">
  <sodipodi:namedview
     id="namedview1"
     pagecolor="#ffffff"
     bordercolor="#000000"
     borderopacity="0.25"
     inkscape:showpageshadow="2"
     inkscape:pageopacity="0.0"
     inkscape:pagecheckerboard="0"
     inkscape:deskcolor="#d1d1d1"
     inkscape:document-units="px"
     inkscape:zoom="9.5364583"
     inkscape:cx="15.519388"
     inkscape:cy="40.10923"
     inkscape:window-width="3840"
     inkscape:window-height="2066"
     inkscape:window-x="3829"
     inkscape:window-y="-11"
     inkscape:window-maximized="1"
     inkscape:current-layer="layer1" />
  <defs
     id="defs1">
    <clipPath
       clipPathUnits="userSpaceOnUse"
       id="clipPath1">
      <rect
         style="fill:#000000;stroke-width:0.936565"
         id="rect2"
         width="180"
         height="180"
         x="833.7666"
         y="404.00897" />
    </clipPath>
  </defs>
  <g
     inkscape:label="Layer 1"
     inkscape:groupmode="layer"
     id="layer1">
    <path
       style="fill:#000000"
       d="m 835.26799,1191.502 c 0,-0.3609 2.7048,-5.7356 6.0107,-11.9439 l 6.0107,-11.2877 -2.5107,-2.5106 c -2.6979,-2.6979 -3.3484,-7.364 -1.3107,-9.4016 0.66,-0.66 3.7834,-1.2 6.9409,-1.2 3.1576,0 6.0257,-0.4607 6.3736,-1.0236 0.8605,-1.3923 7.4855,-19.9949 7.4855,-21.0189 0,-0.4501 -1.0125,-0.9622 -2.25,-1.138 -2.7387,-0.389 -6.1979,-6.833 -5.2579,-9.7948 1.1716,-3.6914 3.4482,-5.0247 8.5793,-5.0247 2.7107,0 4.9292,-0.1125 4.9299,-0.25 8e-4,-0.1375 0.6767,-4.075 1.5021,-8.75 2.397,-13.5773 4.4966,-37.2451 4.4966,-50.6898 0,-16.53 1.3795,-19.3102 9.5818,-19.3102 4.1933,0 7.1222,2.6953 7.8175,7.1942 0.281,1.8182 0.7281,11.4058 0.9937,21.3058 0.4366,16.2759 1.3604,24.9352 4.7153,44.2006 l 1.097,6.2994 h 4.7423 c 5.5644,0 8.0524,2.0682 8.0524,6.6938 0,3.3442 -3.329,8.3062 -5.5726,8.3062 -0.7851,0 -1.4274,0.5905 -1.4274,1.3124 0,1.1613 4.6138,15.3131 6.5001,19.9376 0.5724,1.4031 1.9492,1.75 6.9463,1.75 5.7092,0 6.33,0.2139 7.3937,2.5484 0.9376,2.0579 0.8454,3.1647 -0.4791,5.75 -0.902,1.7609 -2.0629,3.4751 -2.5796,3.8094 -0.5167,0.3343 1.7996,6.0718 5.1473,12.75 l 6.0867,12.1422 h -12.3839 -12.3839 l -0.4587,-5.5321 c -0.379,-4.5701 -1.0321,-6.1236 -3.7556,-8.9336 -1.8133,-1.8708 -5.5722,-4.3803 -8.3533,-5.5766 -4.3129,-1.8554 -6.4669,-2.1186 -14.6491,-1.79 -8.2303,0.3306 -10.2524,0.772 -14.2386,3.1081 -6.8584,4.0192 -8.7923,6.9577 -8.7923,13.359 v 5.3652 h -12.5 c -6.875,0 -12.5,-0.2953 -12.5,-0.6562 z m 62,-37.1623 c 0,-0.4502 -0.6347,-3.0377 -1.4104,-5.75 -0.7757,-2.7124 -2.1443,-7.54 -3.0415,-10.7282 l -1.6311,-5.7966 -6.0891,0.2966 -6.0891,0.2967 -2.8321,10 c -1.5577,5.5 -2.8489,10.5625 -2.8694,11.25 -0.028,0.9326 3.0094,1.25 11.9627,1.25 6.6,0 12,-0.3684 12,-0.8185 z m -10.3582,-40.9315 c -0.3409,-2.0625 -0.6248,-4.6275 -0.6308,-5.7 -0.018,-3.2615 -1.7055,-0.3817 -2.3704,4.0461 -0.6502,4.3301 -0.2216,5.4039 2.1569,5.4039 1.1354,0 1.325,-0.8419 0.8443,-3.75 z m 193.35821,78.056 c -3.5449,-1.2669 -4,-3.4655 -4,-19.3229 0,-15.511 0.02,-15.6537 2.5789,-18.0588 l 2.5789,-2.4243 27.4213,-0.2953 27.4214,-0.2952 2.4997,2.4998 c 2.4577,2.4577 2.4998,2.7686 2.4998,18.4726 v 15.9729 l -2.6348,2.0726 c -2.5247,1.9858 -3.7695,2.0692 -29.75,1.9936 -14.9134,-0.043 -27.7902,-0.3202 -28.6152,-0.615 z m 10.0658,-20.3412 c 1.1963,-0.6403 1.9342,-2.09 1.9342,-3.8 0,-5.1683 -4.6082,-6.9899 -7.4433,-2.9423 -2.0033,2.8601 -1.9642,3.3699 0.4433,5.7775 2.3129,2.3129 2.4854,2.3457 5.0658,0.9648 z m -728.41085,18.2064 c -2.18534,-2.4148 -2.09332,-5.408 0.25547,-8.3105 l 1.91046,-2.3607 29.58954,-0.2927 29.58954,-0.2927 v -7.2572 -7.2573 l -6.25,-1.2795 c -15.05898,-3.0828 -29.12457,-10.6388 -41.11671,-22.0877 -17.50337,-16.7105 -25.66572,-35.2557 -25.76228,-58.5329 -0.0596,-14.3792 2.92456,-27.5354 8.50608,-37.5 4.66882,-8.3353 8.68663,-10.0272 13.16837,-5.5455 3.13746,3.1375 3.08848,4.2658 -0.54446,12.5432 -4.75973,10.8446 -6.41718,18.431 -6.44557,29.5023 -0.0749,29.2151 18.87479,54.5878 47.94457,64.1951 6.94418,2.2949 9.71572,2.6508 21,2.6964 10.87154,0.044 14.22091,-0.3262 20.45693,-2.2611 9.35295,-2.902 18.93626,-7.6971 26.01616,-13.0175 6.10075,-4.5846 9.54284,-5.1442 12.82624,-2.0853 5.4358,5.0642 3.61599,9.1344 -7.62512,17.0542 -11.77903,8.2987 -32.56363,15.8209 -43.92421,15.8965 l -3.25,0.022 v 7.454 7.4541 l 27.05839,0.2959 27.05839,0.296 1.91938,2.5 c 2.34343,3.0523 2.43894,4.8766 0.40714,7.7774 l -1.55671,2.2226 h -64.78831 c -61.49586,0 -64.87241,-0.093 -66.44329,-1.8288 z m 210.84501,-0.063 c -19.40655,-4.836 -33.63669,-16.2494 -43.18842,-34.6397 -6.12521,-11.7931 -7.61241,-18.6352 -7.05739,-32.4687 0.2924,-7.2877 1.10283,-13.3315 2.21254,-16.5 7.68412,-21.9404 22.2442,-36.0413 45.53327,-44.0971 4.28687,-1.4829 8.25712,-1.8968 18,-1.8767 10.93315,0.023 13.45219,0.3599 20.09637,2.6912 24.52475,8.6049 40.75149,28.4018 44.82233,54.6838 4.05903,26.2061 -11.88821,55.0037 -37.64956,67.9875 -11.27251,5.6814 -29.63366,7.4929 -42.76914,4.2197 z m 16.91821,-8.7154 c 1.32921,-0.5101 1.58179,-2.6658 1.58179,-13.5 v -12.893 h 9.67717 9.67718 l 2.74628,3.25 c 2.2457,2.6576 3.06703,3.0555 4.50599,2.1831 3.03897,-1.8424 4.02013,-4.1999 2.6566,-6.3833 -1.02653,-1.6437 -0.74544,-2.965 1.7558,-8.2534 1.63789,-3.4631 3.2595,-8.4178 3.60356,-11.0106 l 0.62556,-4.7141 9.02002,-0.2859 c 7.30137,-0.2314 9.22977,-0.6193 10.12082,-2.0358 0.80106,-1.2735 0.80106,-2.2266 0,-3.5 -0.89127,-1.417 -2.82017,-1.8045 -10.13417,-2.0361 l -9.03337,-0.2861 -0.68297,-5.4662 c -0.37562,-3.0064 -1.9483,-7.9748 -3.49483,-11.0408 -2.4472,-4.8516 -2.66482,-5.9642 -1.67802,-8.5785 0.98038,-2.5974 0.87115,-3.196 -0.80701,-4.4231 -3.02903,-2.2149 -5.49983,-1.686 -7.35512,1.5744 l -1.70349,2.9937 -9.75,0.01 -9.75,0.01 v -12.4649 c 0,-11.7896 -0.11824,-12.5281 -2.183,-13.6331 -1.85861,-0.9947 -2.45299,-0.8349 -4,1.0756 -1.5183,1.875 -1.817,4.1162 -1.817,13.6331 v 11.3893 h -9.52475 c -9.00801,0 -9.57201,-0.1243 -10.39582,-2.2911 -0.47909,-1.2601 -1.56284,-2.8653 -2.40833,-3.5669 -3.43776,-2.8531 -8.84272,4.2863 -5.65688,7.4722 0.68563,0.6856 0.0475,2.7753 -1.96974,6.45 -1.80526,3.2885 -3.24445,7.7071 -3.64339,11.1858 l -0.65942,5.75 h -8.28905 c -9.80938,0 -11.45262,0.4888 -11.45262,3.4069 0,3.81 1.88569,4.5931 11.06071,4.5931 h 8.66071 l 0.59547,5.0278 c 0.32751,2.7652 2.01182,7.6851 3.74291,10.933 2.96057,5.5546 3.05311,6.0399 1.55865,8.1735 -1.48196,2.1158 -1.44358,2.4229 0.57069,4.567 2.84363,3.0269 4.12604,2.9012 7.15741,-0.7013 2.46294,-2.9271 2.74479,-3 11.58889,-3 h 9.06456 v 11.5657 c 0,14.2892 1.11396,16.8627 6.41821,14.8273 z m -27.12692,-35.643 c -2.79856,-3.0607 -4.98002,-7.5739 -5.81685,-12.0346 l -0.69702,-3.7154 h 13.92578 13.92577 l -0.0645,8.9988 -0.0645,8.9987 h -9.57568 c -8.65493,0 -9.77352,-0.2152 -11.63303,-2.2488 z m 28.70871,-6.75 v -9 h 14 c 7.7,0 14,0.3784 14,0.841 0,2.4063 -3.14468,10.749 -5.17644,13.7329 l -2.32356,3.4124 -10.25,0.01 -10.25,0.01 z m -35,-19.3508 c 0,-3.5188 1.97667,-8.7458 4.689,-12.3992 l 2.41278,-3.25 h 10.59157 10.59156 l -0.64245,6.1466 c -0.35335,3.3807 -0.64246,7.4307 -0.64246,9 v 2.8534 h -13.5 -13.5 z m 35,-6.6492 v -9 h 10.34501 c 11.87762,0 12.45059,0.3245 15.70843,8.8985 3.57474,9.4079 3.98063,9.1015 -12.05344,9.1015 h -14 z m 365.99993,77 c -1.9632,-1.9633 -2,-3.3334 -2,-74.5658 0,-48.109 0.3489,-73.2176 1.0352,-74.5 0.9935,-1.8563 2.4591,-1.9342 36.3776,-1.9342 29.21851,0 35.54541,0.2446 36.51431,1.4121 0.874,1.0531 1.1534,20.0471 1.0987,74.6975 -0.066,66.295 -0.2289,73.4573 -1.7045,75.0879 -1.5105,1.669 -4.1374,1.8025 -35.47631,1.8025 -32.5116,0 -33.9237,-0.079 -35.845,-2 z m 55.00001,-27.5 v -14.5 h -20.00001 -20 v 14.5 14.5 h 20 20.00001 z m 0,-36.5 v -6 h -20.00001 -20 v 6 6 h 20 20.00001 z m -2.25,-22.6576 c 2.0155,-0.501 2.25,-1.1734 2.25,-6.4509 v -5.8915 h -20.00001 -20 v 5.9425 5.9425 l 4.25,0.3761 c 7.0341,0.6225 31.08751,0.6809 33.50001,0.081 z m 1.5,-29.302 c 0.4125,-0.022 0.75,-4.5404 0.75,-10.0404 v -10 h -20.00001 -20 v 9.9166 c 0,6.9908 0.3689,10.0693 1.25,10.4341 0.9137,0.3781 29.58231,0.1441 38.00001,-0.3103 z m -266.59491,115.1308 c -2.0743,-2.292 -2.1088,-5.0784 -0.098,-7.9487 1.9811,-2.8285 6.7256,-2.9402 9.4433,-0.2225 2.4026,2.4026 2.5384,4.7862 0.4433,7.7774 -1.9626,2.8019 -7.4107,3.0211 -9.7884,0.3938 z m 417.62271,-1.4212 c -0.532,-0.6875 -1.2428,-2.0241 -1.5796,-2.9702 -0.3369,-0.9462 -1.7567,-2.0074 -3.1553,-2.3585 -3.4864,-0.875 -3.5773,-5.1236 -0.1281,-5.9893 1.3764,-0.3454 2.9208,-1.8278 3.5916,-3.4472 1.7289,-4.174 3.8936,-4.5703 5.1577,-0.9444 0.579,1.6612 2.3541,3.6932 3.9444,4.5156 3.5368,1.8289 3.7269,4.1759 0.4395,5.4257 -1.3487,0.5128 -3.1602,2.3017 -4.0257,3.9753 -1.7057,3.2985 -2.7411,3.7359 -4.2445,1.793 z m -476.62271,-10.5788 c -2.1784,-2.407 -2.0881,-4.0814 0.3605,-6.6878 l 2.0155,-2.1454 -2.0155,-1.824 c -2.5797,-2.3346 -2.5592,-4.7121 0.061,-7.0834 2.0027,-1.8124 2.1871,-1.8159 5.1833,-0.096 2.9688,1.7038 3.252,1.7048 6.3733,0.024 3.1359,-1.6888 3.3484,-1.685 5.3166,0.096 2.498,2.2606 2.6001,4.2803 0.3422,6.7751 -1.3822,1.5274 -1.4764,2.2099 -0.4936,3.5788 2.1749,3.0295 2.5365,4.437 1.5439,6.0105 -2.0485,3.2476 -3.9708,3.6183 -6.8832,1.3275 l -2.784,-2.19 -2.152,2.0218 c -2.6683,2.5066 -4.722,2.5643 -6.8681,0.1929 z m 108,0 c -2.1784,-2.407 -2.0881,-4.0814 0.3605,-6.6878 l 2.0155,-2.1454 -2.0155,-1.824 c -2.505,-2.267 -2.5713,-4.7012 -0.1868,-6.8591 2.3986,-2.1706 3.7386,-2.0876 6.211,0.3848 l 2.0398,2.0398 2.8646,-2.0398 c 3.5182,-2.5051 4.3014,-2.5309 6.4009,-0.211 2.1979,2.4286 2.0878,4.4696 -0.3606,6.6853 l -2.0155,1.824 2.0155,2.1454 c 2.5008,2.6619 2.5567,4.7169 0.1868,6.8616 -2.4286,2.1979 -4.4695,2.0878 -6.6853,-0.3606 l -1.824,-2.0155 -2.1454,2.0155 c -2.6619,2.5007 -4.7168,2.5567 -6.8615,0.1868 z m -55.3167,-8.4364 c -0.2613,-0.4208 -0.3669,-3.7492 -0.2347,-7.3964 l 0.2404,-6.6312 -7.4549,-2.6314 c -10.0802,-3.558 -16.2031,-7.2917 -23.654,-14.4243 l -6.2649,-5.9972 -2.8723,2.7518 c -2.4061,2.3052 -3.1745,2.5615 -4.7351,1.5793 -1.5862,-0.9984 -9.2188,-10.5712 -11.6233,-14.578 -0.491,-0.8182 2.1904,-4.6357 7.5683,-10.775 l 8.3288,-9.5077 -0.4179,-5.8124 c -1.2283,-17.0866 8.3646,-35.916 23.1746,-45.4882 8.7471,-5.6535 17.1613,-8.0209 28.6067,-8.0485 15.9298,-0.038 28.9443,5.7215 39.6004,17.5266 8.7877,9.7351 14.4567,26.1244 13.0741,37.7978 l -0.5636,4.7591 8.4445,8.9706 c 4.6445,4.9338 8.4446,9.218 8.4446,9.5203 0,0.9688 -5.7131,9.0191 -9.3322,13.15 -3.7605,4.2923 -3.1945,4.2738 -9.5822,0.3129 -1.6711,-1.0363 -2.6993,-0.4602 -8.0952,4.5354 -6.6556,6.1619 -16.1923,11.4916 -25.3002,14.1394 l -5.6902,1.6542 8e-4,7.679 9e-4,7.6791 h -10.5942 c -5.8268,0 -10.8079,-0.3444 -11.0692,-0.7652 z m 4.6617,-27.7229 c 0,-2.6287 -0.4767,-3.0086 -5.6681,-4.5178 -3.1175,-0.9063 -7.955,-3.1217 -10.75,-4.9231 -5.8271,-3.7557 -14.5581,-12.6905 -16.9827,-17.3791 -1.9237,-3.72 -2.5579,-3.8601 -5.7385,-1.2677 l -2.3607,1.9242 2,3.8253 c 3.0878,5.9059 14.2449,16.4259 21.5,20.2723 6.2291,3.3025 15.6741,6.2343 17.25,5.3546 0.4125,-0.2303 0.75,-1.7102 0.75,-3.2887 z m 22.1185,1.5646 c 10.9219,-3.3149 20.4248,-10.2754 27.4288,-20.0906 l 4.7029,-6.5906 -2.2994,-2.4477 c -1.2647,-1.3462 -2.5585,-2.4468 -2.8751,-2.4459 -0.3167,0 -1.8133,1.9608 -3.3259,4.3551 -4.3243,6.8452 -12.9716,14.3483 -20.934,18.1642 -3.9927,1.9134 -7.9696,3.479 -8.8376,3.479 -2.4257,0 -3.73,1.8476 -3.2131,4.5514 0.5501,2.8778 2.5332,3.0951 9.3534,1.0251 z m -6.4907,-26.1696 c 8.5767,-3.5285 13.7102,-11.3538 13.7153,-20.9069 0.01,-8.8636 -4.7579,-16.6303 -12.6741,-20.6689 -4.6333,-2.3637 -14.209,-2.7944 -19.1646,-0.862 -15.0631,5.8738 -19.3123,26.0093 -7.8976,37.424 6.2855,6.2855 17.6211,8.4696 26.021,5.0138 z m 292.37221,45.0617 c 0,-2.568 -0.3542,-2.8314 -5.25,-3.9042 -4.8333,-1.0591 -3.19,-5.9661 2.25,-6.7186 2.0121,-0.2783 2.5621,-0.992 2.8179,-3.6565 0.2647,-2.7565 0.6831,-3.2587 2.5,-3 1.4573,0.2075 2.297,1.1411 2.5279,2.8107 0.4786,3.4595 1.9707,5 4.8431,5 2.0762,0 2.3963,0.4138 2.1275,2.75 -0.2465,2.1422 -0.848,2.7549 -2.7215,2.7723 -2.337,0.022 -3.3747,1.1141 -4.4914,4.7277 -0.2974,0.9625 -1.4548,1.75 -2.5721,1.75 -1.5069,0 -2.0314,-0.6537 -2.0314,-2.5314 z m 19,-19.782 c 0,-1.7783 4.9452,-23.7889 5.5729,-24.8046 0.2545,-0.4117 -1.0888,-3.5911 -2.9851,-7.0653 -11.0341,-20.2158 -3.3585,-45.4262 16.9122,-55.5479 20.3846,-10.1786 46.2045,-1.8171 55.829,18.0795 6.0942,12.5986 5.8664,24.117 -0.7281,36.8166 l -3.4609,6.6649 2.93,13.3203 c 1.6115,7.3262 2.93,13.4395 2.93,13.5851 0,0.1456 -2.4125,0.2648 -5.361,0.2648 h -5.3611 l -2.1623,-7.75 c -1.1893,-4.2625 -2.975,-11.125 -3.9681,-15.25 l -1.8058,-7.5 3.7272,-5.5 c 6.2549,-9.2301 7.4062,-16.9826 3.9096,-26.3281 -2.5359,-6.7777 -8.7166,-13.122 -15.9785,-16.4015 -4.7136,-2.1287 -6.5724,-2.4208 -13,-2.0428 -12.475,0.7336 -21.806,7.2924 -25.8852,18.1951 -3.6417,9.7332 -2.445,17.8766 4.0045,27.2507 l 3.2003,4.6514 -1.8717,7.5876 c -1.0295,4.1732 -2.8356,10.9626 -4.0136,15.0876 l -2.1418,7.5 -5.1462,0.3022 c -3.9174,0.2301 -5.1463,-0.036 -5.1463,-1.1156 z m -649.49815,-9.823 c -7.75906,-1.8155 -18.13909,-7.8019 -23.74895,-13.6968 -8.24774,-8.6666 -11.92378,-16.1855 -14.13776,-28.9168 l -0.56518,-3.25 h 46.55058 46.55059 l -0.32559,14.1227 -0.32558,14.1226 -5.5,4.9136 c -6.27862,5.6092 -17.03502,11.1368 -24.79922,12.7441 -6.26507,1.2969 -18.07152,1.2773 -23.69889,-0.039 z m 35.61172,-20.9244 c 4.63419,-2.4802 4.20701,-9.5609 -0.71203,-11.8021 -2.85807,-1.3023 -5.30059,-0.5794 -7.62934,2.2578 -2.39228,2.9147 -2.19483,5.2734 0.68231,8.1505 2.67596,2.676 4.60672,3.0273 7.65906,1.3938 z m 650.88643,9.3196 c -3.9015,-1.5171 -5.0644,-6.2941 -2.4433,-10.0363 1.8363,-2.6217 6.5581,-2.994 8.4875,-0.6693 2.0951,2.5245 1.5807,7.5223 -0.9883,9.6026 -2.416,1.9563 -2.7013,2.0186 -5.0559,1.103 z m -2.4433,-16.4814 c -3.1949,-4.5613 -0.8203,-10.7774 4.1171,-10.7774 4.3416,0 6.8086,6.3616 4.291,11.0657 -1.4633,2.7342 -6.4098,2.5646 -8.4081,-0.2883 z m -1.8696,-15.5822 c -3.2208,-3.3618 -3.4313,-6.9794 -0.6145,-10.5604 4.2899,-5.4537 14.9274,-1.9643 14.9274,4.8966 0,1.5651 -1.1785,3.8009 -2.9231,5.5455 -3.8273,3.8273 -7.7969,3.8686 -11.3898,0.1183 z m -183.57371,-8.104 c -0.7626,-0.4829 -1.6073,-3.176 -1.8772,-5.9847 l -0.4907,-5.1065 h -5.3728 -5.3727 v -5 -5 h 5.5 5.5 v -4.8 c 0,-5.4711 1.2315,-7.2 5.1285,-7.2 3.9874,0 5.8714,2.4296 5.8714,7.5714 v 4.4286 h 5.3865 c 5.1672,0 5.4037,0.1169 5.8081,2.8719 0.7757,5.2854 -0.3668,6.5802 -6.2895,7.1281 -3.8277,0.354 -5.4443,0.9377 -5.5397,2 -0.074,0.825 -0.1866,3.4125 -0.25,5.75 -0.1115,4.1078 -0.224,4.2494 -3.3654,4.2346 -1.7874,-0.01 -3.8739,-0.4104 -4.6365,-0.8934 z m -536.41168,-5.8412 c 0.88383,-5.754 4.88093,-15.7831 8.23088,-20.6521 10.10664,-14.6895 30.08742,-23.3209 48.09162,-20.7747 9.8866,1.3981 17.63582,4.3459 25.4024,9.6632 3.43342,2.3506 7.12463,4.5537 8.20268,4.8959 1.83474,0.5823 1.95724,1.5813 1.91539,15.6198 l -0.0447,14.9976 -46.18713,10e-5 -46.18713,2e-4 z m 305.05248,-7.9695 -4.7195,-4.7195 -4.1116,4.2789 c -3.7886,3.9428 -4.2766,4.1693 -6.2122,2.8841 -4.26,-2.8285 -4.2925,-4.1778 -0.2203,-9.1473 l 3.8256,-4.6686 -3.8465,-3.9391 -3.8464,-3.9392 2.3626,-2.5149 c 3.0567,-3.2537 4.1975,-3.1708 8.513,0.6182 l 3.5685,3.1332 5.5502,-6.1332 c 3.0526,-3.3732 6.1568,-6.1331 6.8982,-6.1331 0.7414,0 2.3299,1.3789 3.53,3.0643 l 2.1819,3.0643 -2.3424,2.6857 c -1.2884,1.4771 -3.8685,4.3348 -5.7337,6.3505 l -3.3912,3.6648 4.5702,4.8858 4.5701,4.8858 -2.7306,3.1994 c -1.5018,1.7596 -2.9479,3.1994 -3.2135,3.1994 -0.2656,0 -2.6067,-2.1238 -5.2024,-4.7195 z m 114.8275,1.8047 -2.8202,-2.9436 4.3044,-5.1047 4.3043,-5.1048 -5.7847,-5.8457 c -6.2371,-6.3028 -6.3698,-7.2567 -1.6096,-11.5647 l 2.1612,-1.9559 6.0463,6.2171 c 3.3254,3.4194 6.3563,6.2171 6.7352,6.2171 0.379,0 2.1863,-1.5449 4.0164,-3.433 l 3.3273,-3.4329 2.8688,2.121 c 1.5779,1.1665 2.8689,2.6231 2.8689,3.2367 0,0.6137 -1.575,2.6424 -3.5,4.5082 -1.925,1.8657 -3.5,3.673 -3.5,4.0161 0,0.3431 1.6332,2.5319 3.6294,4.864 l 3.6294,4.2402 -2.8286,2.9525 -2.8287,2.9525 -4.3029,-4.223 -4.3029,-4.223 -4.7969,4.7248 -4.7969,4.7248 z m -267.91506,-3.7519 c -0.36667,-0.3667 -0.66667,-1.8517 -0.66667,-3.3 0,-3.519 -1.71486,-5.0333 -5.7,-5.0333 -3,0 -3.3,-0.2728 -3.3,-3 0,-2.6214 0.35457,-3 2.80887,-3 3.80356,0 6.00397,-1.8973 6.37891,-5.5 0.25346,-2.4354 0.77505,-3 2.77123,-3 1.979,0 2.59078,0.6443 3.13407,3.3007 0.83404,4.078 1.02821,4.2721 5.10618,5.1062 2.65643,0.5433 3.30074,1.155 3.30074,3.134 0,1.9962 -0.56465,2.5178 -3,2.7713 -3.41052,0.3549 -5.5,2.5477 -5.5,5.7719 0,2.6511 -3.58395,4.4986 -5.33333,2.7492 z m 515.00127,-9.9291 c -2.5673,-2.5311 -4.6679,-4.7652 -4.6679,-4.9647 0,-0.7497 8.8554,-9.4395 9.6194,-9.4395 0.4387,0 2.9048,2.2092 5.4803,4.9093 l 4.6825,4.9094 -3.1411,2.8716 c -7.6367,6.9814 -6.7578,6.8556 -11.9732,1.7139 z m 109.0821,0.018 c -2.6125,-2.4925 -4.75,-4.6516 -4.75,-4.7979 0,-0.647 9.0411,-9.6239 9.6927,-9.6239 0.6873,0 9.3073,8.9682 9.3073,9.6833 0,0.5904 -8.4283,9.3176 -8.9752,9.2935 -0.2886,-0.013 -2.6623,-2.0625 -5.2748,-4.555 z m -601.35331,-40.3987 c -1.7178,-0.6943 -2.20564,-1.9791 -2.66187,-7.0105 -0.35787,-3.9467 -1.21913,-6.88993 -2.39673,-8.19053 -1.70775,-1.886 -1.85819,-4.814 -2.12099,-41.2787 l -0.28287,-39.2486 10.28287,0.1026 10.28286,0.1026 -0.37848,38.5 c -0.33998,34.5839 -0.55555,38.7542 -2.11931,41 -0.96455,1.3851 -1.95282,5.13093 -2.21622,8.39983 -0.6134,7.6126 -3.01539,9.7953 -8.38926,7.6233 z m 57.02759,-1.0205 c -6.773,-2.6853 -12.34538,-7.6248 -15.95617,-14.14383 l -2.96815,-5.3588 -0.2739,-77.3044 c -0.17755,-50.1092 0.0837,-78.6325 0.74264,-81.0795 1.3419,-4.9835 5.63834,-10.4607 10.28126,-13.1069 2.0625,-1.1755 3.75,-2.7834 3.75,-3.5732 0,-1.1882 2.7613,-1.436 16,-1.436 13.18168,0 16,0.251 16,1.425 0,0.7838 1.9125,2.4798 4.25,3.7689 5.86792,3.2361 10.40263,10.9595 11.24043,19.1445 0.3469,3.3888 0.4909,38.7866 0.3201,78.6616 l -0.3105,72.5 -2.9457,5.8181 c -5.44046,10.74603 -13.82556,15.81833 -27.05433,16.36583 -6.24007,0.2583 -9.1166,-0.1116 -13.07568,-1.6813 z m 15.57568,-17.00263 c 3.88698,-3.887 1.36853,-10 -4.1198,-10 -4.91989,0 -6.83328,7.5186 -2.65769,10.4432 2.93731,2.0574 4.37057,1.9637 6.77749,-0.4432 z m 15,-24.5 v -4.5 h -6.5 -6.5 v -4.375 c 0,-4.1 0.19643,-4.4143 3.125,-5 1.71875,-0.3438 4.64375,-0.625 6.5,-0.625 h 3.375 v -32.5 -32.5 l -5.75,-0.014 c -8.00998,-0.019 -10.25,-0.7683 -10.25,-3.4287 0,-3.7951 3.86087,-6.3999 10,-6.7468 l 5.5,-0.3108 0.3075,-4.25 0.3075,-4.25 h -18.5575 -18.5575 v 4.5 4.5 h 7.39301 c 5.81897,0 7.52225,0.3367 8,1.5817 0.33385,0.87 0.60699,16.1615 0.60699,33.981 v 32.3991 l -2.37917,0.5972 c -1.30854,0.3284 -3.67104,0.4495 -5.25,0.269 l -2.87083,-0.328 -0.2651,-29.25 -0.26511,-29.25 h -2.48489 -2.4849 v 26.3533 c 0,14.4943 -0.28301,29.061 -0.62891,32.3704 l -0.62892,6.0171 7.62892,0.7149 c 8.21612,0.7699 8.63116,1.2025 6.99862,7.2943 -0.54545,2.0353 -1.21188,2.25 -6.98634,2.25 h -6.38337 v 4.5 4.5 h 18.5 18.5 z m 0,-113.5 v -4 h -18.5 -18.5 v 4 4 h 18.5 18.5 z m -14.82874,-13.655 c 2.27423,-2.0582 2.34495,-5.1172 0.17375,-7.5163 -3.24156,-3.5819 -10.34501,-1.1803 -10.34501,3.4975 0,4.8929 6.40774,7.4247 10.17126,4.0188 z m 185.40407,155.7598 c -0.3879,-7.6423 -0.416,-15.4373 -0.062,-17.3221 0.4882,-2.6023 -0.1923,-5.5754 -2.8281,-12.3549 -4.6778,-12.0317 -6.0233,-19.056 -5.9242,-30.9278 0.2586,-30.9772 21.2702,-57.4613 52.1037,-65.6742 9.7475,-2.5963 25.7251,-2.7848 35.6081,-0.4199 20.0419,4.7958 37.1141,18.765 46.5557,38.0941 9.0854,18.5999 9.0734,38.7295 -0.035,58.2286 -9.117,19.5181 -23.7425,32.54013 -44.2718,39.41803 -7.5639,2.5342 -11.2675,3.1074 -25.049,3.8773 -8.8949,0.4968 -24.9969,0.9197 -35.7823,0.9397 l -19.6096,0.036 z m 54.1972,-33.9373 0.2726,-18.1675 h -19.0416 -19.0416 l 0.6047,2.75 c 2.1379,9.7219 11.7669,23.017 20.2861,28.0095 5.0608,2.9659 14.0639,6.3454 15.6473,5.8735 0.6057,-0.1805 1.1074,-7.46 1.2725,-18.4655 z m 29.4072,13.656 c 10.0865,-5.3761 19.734,-17.9894 22.2373,-29.0735 l 0.6211,-2.75 h -18.5191 -18.519 v 18.3937 18.3937 l 4.2065,-0.9452 c 2.3136,-0.5198 6.8015,-2.3283 9.9732,-4.0187 z m -42.4297,-47.8149 13.25,-0.01 v -16.8334 c 0,-9.2583 -0.261,-17.0943 -0.5799,-17.4132 -1.1591,-1.1591 -14.677,4.2647 -19.5567,7.8468 -8.0869,5.9363 -16.7836,18.9953 -16.8415,25.289 -0.021,2.2976 0.1797,2.3651 5.2281,1.7587 2.8875,-0.3468 11.2125,-0.6345 18.5,-0.6393 z m 64.2492,-1.4074 c -5e-4,-1.1557 -1.3561,-4.9661 -3.0126,-8.4676 -5.2783,-11.1575 -18.7377,-22.0831 -29.32,-23.8003 l -3.6666,-0.595 v 17.3808 17.3809 l 17.9984,0.1012 c 17.6531,0.099 17.9984,0.061 17.9976,-2 z m 109.85741,81.05953 c -15.2662,-4.5801 -28.9072,-13.61993 -38.72181,-25.66073 l -4.4831,-5.5 32.92411,-0.5 32.9242,-0.5 -4.4132,-2.8656 c -9.7563,-6.335 -19.8207,-19.0354 -24.1604,-30.4886 -2.0061,-5.2947 -4.9521,-18.2596 -6.3386,-27.8958 l -0.6115,-4.25 h 60.5119 60.5118 v 2.8698 c 0,2.7002 0.3444,2.9377 5.8241,4.0158 8.0697,1.5876 13.6719,5.462 16.7083,11.5551 5.4697,10.9763 1.3864,22.7392 -10.0324,28.9008 -3.3775,1.8226 -5.6437,2.1585 -14.5626,2.1585 h -10.5625 l -6.4375,5.8847 c -3.5405,3.2366 -8.0124,6.8366 -9.9374,8 l -3.5,2.1153 30.25,0.2646 c 26.517,0.232 30.25,0.4556 30.25,1.8117 0,0.8509 -4.1625,5.7095 -9.25,10.7969 -9.6848,9.68483 -16.3136,13.86053 -29.75,18.74083 -6.3926,2.3218 -7.1859,2.3648 -48,2.6003 -40.73,0.2351 -41.6418,0.197 -49.1434,-2.0536 z m 117.0708,-64.29563 c 4.6209,-5.8745 0.9903,-13.507 -6.5392,-13.7471 l -3.7021,-0.118 -1.8134,7.2975 c -0.9974,4.0137 -2.0783,7.7262 -2.4021,8.25 -0.3497,0.5659 2.0442,0.9525 5.8978,0.9525 5.8163,0 6.7006,-0.2723 8.559,-2.6349 z m -779.42744,64.42833 c -8.14014,-2.8454 -13.49044,-9.6216 -13.49626,-17.09313 -0.006,-7.5941 3.78011,-13.0408 11.22779,-16.1526 3.23468,-1.3516 13.47296,-1.5477 80.76858,-1.5477 h 77.06434 l 0.81853,2.2127 c 1.06096,2.868 0.40491,5.2167 -2.0873,7.4725 -1.89348,1.7139 -6.15451,1.8292 -76.65031,2.074 -68.59347,0.2383 -74.74671,0.3957 -75.89537,1.9412 -1.90548,2.5637 -1.49904,5.717 1.04496,8.1069 l 2.29495,2.15603 77.28589,0.2683 c 75.18766,0.2611 77.32442,0.3211 78.70505,2.2095 1.95621,2.6757 1.77785,4.7967 -0.6198,7.3703 l -2.03896,2.1886 -77.71104,-0.079 c -51.43548,-0.052 -78.72541,-0.4335 -80.71105,-1.1276 z m 319.13033,-8.0434 c -0.3317,-1.2375 -0.6092,-30.26253 -0.6167,-64.50003 l -0.014,-62.25 h 53.5 53.5 v 15.9409 c 0,8.7676 -0.3391,16.1506 -0.7535,16.4067 -0.4144,0.2562 -3.0019,-0.2798 -5.75,-1.191 l -4.9965,-1.6566 -0.2889,-8.75 -0.2889,-8.75 -40.2111,0.015 c -22.1161,0.01 -40.7808,0.3769 -41.4772,0.819 -0.9827,0.6237 -1.2066,7.0556 -1,28.7346 l 0.2661,27.9311 7.25,0.2938 7.25,0.2938 v -5.0346 c 0,-4.652 0.2651,-5.2064 3.4876,-7.2939 4.1412,-2.6825 4.3948,-4.9218 1.0124,-8.9415 -2.0459,-2.4315 -2.5,-4.0383 -2.5,-8.8473 0,-9.619 2.382,-12.6317 10.5,-13.2799 2.6277,-0.2098 3.9024,-0.7616 3.7155,-1.6085 -0.7992,-3.6208 0.8651,-5.0819 5.7886,-5.0819 4.7625,0 4.8761,0.071 5.1826,3.25 l 0.3133,3.25 11.2421,0.015 c 10.9297,0.014 11.3187,0.091 14,2.7727 2.5134,2.5134 2.7579,3.4137 2.7579,10.1546 0,6.2944 -0.3353,7.7537 -2.25,9.7917 -2.7737,2.9525 -2.8982,6.3489 -0.2839,7.748 4.6183,2.4717 4.9719,15.6524 0.5576,20.7869 l -2.3482,2.7313 -32.8377,0.5 -32.8378,0.5 v 17.5 17.5 h 21.4553 21.4552 l 0.045,-11 0.045,-11 12.0079,-0.5131 c 10.7734,-0.4604 12.4879,-0.7944 16.6764,-3.2491 2.5677,-1.5047 6.002,-4.3536 7.6318,-6.3308 l 2.9632,-3.595 6.0751,2.2151 6.0751,2.2151 -2.853,4.1289 c -7.2119,10.4373 -15.5857,15.2264 -28.7027,16.4152 l -7.8738,0.7137 -0.3251,3.4079 c -0.1788,1.8744 0.1791,6.3037 0.7954,9.8428 0.8459,4.85733 0.8343,6.77983 -0.047,7.84203 -0.9604,1.1573 -6.9881,1.4073 -33.9288,1.4073 h -32.7609 z m 69.7855,-57.71803 c 1.7017,-0.647 2.351,-1.4761 1.9581,-2.5 -0.4958,-1.2921 -3.2245,-1.532 -17.4219,-1.532 -16.8414,0 -18.783,0.392 -17.572,3.5478 0.4528,1.18 3.362,1.4522 15.5235,1.4522 8.2314,0 16.112,-0.4356 17.5123,-0.968 z m -2.4158,-16.032 v -3 h -12 -12 v 3 3 h 12 12 z m 4,-14 c 0,-1.9167 -0.6667,-2 -16,-2 -15.3334,0 -16,0.083 -16,2 0,1.9166 0.6666,2 16,2 15.3333,0 16,-0.083 16,-2 z m 205.6068,77.9054 c -5.6501,-4.4445 -1.2924,-12.7733 5.0899,-9.7282 4.6647,2.2257 4.2494,8.1756 -0.7576,10.8553 -1.2443,0.6659 -2.4524,0.3516 -4.3323,-1.1271 z m -252.9074,-11.5393 c -0.3847,-0.3847 -0.6994,-2.8079 -0.6994,-5.3848 v -4.6853 l 8.9121,-0.5774 c 12.7442,-0.8257 13.2499,-0.6035 12.8856,5.6605 l -0.2977,5.1209 -10.0506,0.2827 c -5.5278,0.1556 -10.3653,-0.032 -10.75,-0.4166 z m -356.47286,-85.9394 0.27343,-78.2556 3.00665,-4.3356 c 1.90471,-2.7465 4.83672,-5.2518 8,-6.8355 l 4.99335,-2.5 65.5,-0.29 c 46.76633,-0.207 66.68515,0.036 69.64372,0.8502 5.26996,1.45 10.85637,6.0395 13.3853,10.9966 1.90374,3.7317 1.97098,6.1686 1.97098,71.4354 0,74.8538 0.24912,71.9271 -6.56502,77.1259 l -3.77722,2.8819 -72.11756,0.5 -72.11756,0.5 -6.23475,3.0911 -6.23475,3.0911 z m 139.58679,46.8233 0.31336,-3.25 h -57.06336 -57.06336 v 3.5082 3.5083 l 56.75,-0.2583 56.75,-0.2582 z m 0.18664,-14.75 v -3.5 h -57 -57 v 3.5 3.5 h 57 57 z m 0,-14.5 v -3 h -57 -57 v 3 3 h 57 57 z m -15.2,-21.2 c 2.0174,-2.0174 1.3787,-5.6369 -1.30501,-7.3953 -2.7993,-1.8342 -4.89203,-0.8799 -6.0464,2.7572 -1.2367,3.8965 4.48384,7.5056 7.35141,4.6381 z m -70.95084,-8.1146 c 2.49255,-2.5939 3.17867,-4.0224 2.68261,-5.5854 -0.99311,-3.129 -3.76465,-2.5645 -9.44197,1.9232 -5.29153,4.1827 -6.41714,7.1346 -3.37069,8.8394 2.20674,1.235 5.66818,-0.5341 10.13005,-5.1772 z m 81.64632,-1.3238 c 1.40856,-1.4085 1.59389,-3.8563 1.32143,-17.4527 -0.2219,-11.0733 -0.69709,-16.1938 -1.58503,-17.0798 -0.93002,-0.928 -5.28326,-1.2101 -16.32817,-1.058 -8.28303,0.1141 -15.47488,0.4638 -15.98188,0.7772 -0.50701,0.3133 -0.92183,7.6571 -0.92183,16.3195 0,17.6014 0.56573,19.5351 5.54931,18.9679 l 2.95069,-0.3357 0.27903,-13.25 0.27902,-13.25 h 7.97098 7.97097 l 0.0137,11.25 c 0.0155,12.741 0.49511,15.4578 2.83897,16.0804 3.10023,0.8234 4.00615,0.6679 5.64285,-0.9688 z m -44.74548,-2.3507 c 3.71491,-2.265 4.06795,-3.9607 1.33883,-6.4306 -1.46691,-1.3275 -2.91972,-1.5867 -6.25,-1.1152 -5.58567,0.7909 -10.14819,-1.8425 -11.78499,-6.802 -2.60321,-7.8878 4.83816,-15.2595 12.90467,-12.7838 3.20134,0.9825 3.76734,0.8456 6.03701,-1.46 l 2.50448,-2.5441 -3,-2.4335 c -5.57974,-4.5262 -13.00212,-4.2346 -20.59099,0.8088 -7.97284,5.2986 -10.11493,17.3066 -4.57946,25.6712 5.17155,7.8148 16.57111,11.2653 23.42045,7.0892 z m -42.86465,-17.9189 c 0.91707,-0.5808 1.16414,-1.7587 0.73095,-3.4847 -0.65297,-2.6016 -0.67734,-2.6073 -11.10017,-2.6073 -9.53015,0 -10.54258,0.1809 -11.55034,2.0639 -2.08027,3.887 0.24854,4.9377 10.90666,4.9207 5.29515,-0.01 10.25096,-0.4101 11.0129,-0.8926 z m 9.50747,-21.383 c 0.93816,-1.5175 0.23445,-2.6323 -4.60985,-7.3028 -4.96003,-4.7821 -5.98622,-5.3678 -7.75,-4.4239 -3.31218,1.7726 -2.35854,4.5774 3.21703,9.4615 5.48475,4.8046 7.29556,5.2533 9.14282,2.2652 z m 47.60718,-8.1021 c 0,-4.7601 -0.38311,-6.54 -1.5,-6.9686 -3.41328,-1.3098 -4.5,0.3731 -4.5,6.9686 v 6.3931 h 3 3 z m -25.2,0.1931 c 0.73899,-0.739 1.2,-4.3628 1.2,-9.4327 0,-7.5737 -0.17397,-8.2878 -2.1738,-8.9225 -3.40214,-1.0798 -4.8262,1.8845 -4.8262,10.0463 0,6.8439 0.98092,9.5089 3.5,9.5089 0.605,0 1.64,-0.54 2.3,-1.2 z m 539.44993,118.5377 c -0.897,-0.362 -1.25,-3.713 -1.25,-11.8688 v -11.3644 l -5.25,-0.3023 -5.25,-0.3022 v -5 -5 l 15.75,-0.2754 15.75,-0.2754 v 5.5254 5.5254 h -5.25 -5.25 l 0.3152,9.9461 c 0.3732,11.7745 -0.4727,14.0929 -5.1004,13.9793 -1.7681,-0.043 -3.7773,-0.3059 -4.4648,-0.5833 z m -424.24993,-71.0855 v -28.7477 l 4.66655,-12.7523 c 2.56659,-7.0137 4.93539,-12.7522 5.26398,-12.7522 0.3286,0 2.74239,5.7375 5.36399,12.75 l 4.76654,12.75 -0.0305,28.75 -0.0305,28.75 h -10 -10 z m 424.64433,17.5514 c -0.3394,-1.267 -0.6232,-3.2915 -0.6307,-4.4989 -0.012,-1.907 -0.6371,-2.2352 -4.7637,-2.5 -4.7042,-0.3018 -4.7529,-0.3409 -5.0603,-4.0547 -0.3041,-3.6742 -0.24,-3.75 3.1682,-3.75 5.7642,0 6.6421,-0.7412 6.6421,-5.607 v -4.393 h 4 4 v 4.3711 4.3712 l 5,0.6633 c 3.9958,0.53 5,1.0416 5,2.547 0,3.7432 -1.1962,4.9542 -5.5362,5.6051 -4.2736,0.6408 -4.3651,0.7349 -4.6615,4.7979 -0.2795,3.8319 -0.5375,4.1672 -3.4216,4.448 -2.5412,0.2473 -3.2337,-0.1234 -3.7363,-2 z m 117.07781,-0.8076 c -3.2798,-2.5799 -4.3712,-8.6059 -2.6635,-14.7054 0.9018,-3.2207 3.1977,-6.6053 7.9783,-11.7611 7.9785,-8.6049 9.67,-12.665 8.0149,-19.2383 -2.0089,-7.9778 0.2229,-12.2912 6.3594,-12.2912 3.4696,0 5.4713,3.3938 6.7155,11.3861 1.5576,10.0045 -0.4695,15.8104 -8.5122,24.3796 -7.6959,8.1997 -8.6145,9.8627 -8.6145,15.5959 0,3.663 -0.4868,4.8761 -2.6348,6.5658 -3.2427,2.5506 -3.4845,2.5531 -6.6431,0.069 z m 66.7896,0.754 c -0.2341,-0.6875 -0.8087,-2.816 -1.277,-4.73 -0.7528,-3.0768 -1.3369,-3.5759 -5.0431,-4.3088 -3.7614,-0.7439 -4.1916,-1.1249 -4.1916,-3.7126 0,-2.6766 0.3045,-2.9057 4.2414,-3.1911 3.3481,-0.2428 4.304,-0.7287 4.5389,-2.3075 0.8556,-5.751 1.2843,-6.5 3.7197,-6.5 2.4342,0 2.8524,0.7288 3.7226,6.4885 0.1652,1.0937 1.1952,2.1237 2.2889,2.2889 5.3913,0.8145 6.4885,1.3527 6.4885,3.1826 0,2.2478 -1.1868,3.1262 -5.3835,3.9845 -2.564,0.5245 -3.2072,1.266 -3.9815,4.5905 -1.1413,4.9004 -4.0697,7.3096 -5.1233,4.215 z m -95.5226,-5 c -2.471,-4.0527 -2.6151,-11.6287 -0.3134,-16.479 0.9216,-1.9421 4.6458,-6.7351 8.276,-10.6511 8.9771,-9.6839 9.8803,-12.0674 7.6889,-20.2914 -1.44,-5.404 -1.5047,-6.8397 -0.4113,-9.121 1.0851,-2.264 1.9415,-2.7075 5.2281,-2.7075 5.3885,0 7.5418,3.7289 8.2675,14.3167 0.6889,10.0515 -0.9834,13.9448 -10.5834,24.6381 -7.1283,7.9402 -7.5977,8.9506 -7.2212,15.5452 0.4254,7.4521 -7.2501,10.7874 -10.9312,4.75 z m -26.0224,-0.5 c -1.9004,-2.3988 -2.1212,-3.6637 -1.7291,-9.903 0.3939,-6.2682 0.8913,-7.7524 4.0215,-12 1.9646,-2.6659 5.0001,-6.197 6.7457,-7.847 6.2815,-5.9376 7.0899,-9.5929 4.3228,-19.5457 -1.6238,-5.8402 -1.6136,-6.0947 0.3489,-8.7349 2.6462,-3.5602 6.5074,-4.0119 9.2382,-1.0807 2.5257,2.7111 3.9314,7.2879 4.7387,15.4287 0.7791,7.8559 -1.429,13.0304 -9.1393,21.4172 -6.6792,7.2653 -8.5141,11.1334 -8.5141,17.9481 0,3.9168 -0.4181,5.2206 -1.9342,6.0321 -3.223,1.7248 -5.8078,1.1775 -8.0991,-1.7148 z m -336.21671,-42.9663 -2.75,-0.4166 v -18.9336 -18.9335 h 5.9709 5.971 l 0.279,13.25 0.2791,13.25 8.25,0.2904 8.25,0.2904 v 5.343 c 0,4.6955 -0.2727,5.416 -2.25,5.9459 -2.437,0.6531 -19.5254,0.5919 -24,-0.086 z m 54.9432,-6.0858 -3.7126,-3.8021 7.0857,-7.6898 7.0857,-7.6898 -4.704,-4.9683 c -8.3342,-8.8025 -8.3455,-8.8374 -4.1278,-12.7026 2.0077,-1.84 4.0711,-3.3453 4.5854,-3.3453 0.5142,0 3.1084,2.6744 5.7647,5.9432 2.6563,3.2687 5.0997,5.9687 5.4297,6 0.33,0.031 2.9484,-2.6432 5.8187,-5.9432 2.8702,-3.3 5.7744,-6 6.4538,-6 0.6793,0 2.7398,1.5524 4.5788,3.4497 l 3.3437,3.4498 -6.1475,6.9341 c -3.3812,3.8137 -6.1475,7.3125 -6.1475,7.7751 0,0.4626 3.0281,3.8926 6.7292,7.6222 l 6.7292,6.7812 -4.2964,4.2439 -4.2963,4.244 -6.3803,-6.9521 -6.3802,-6.9521 -6.1412,6.7021 c -3.3777,3.6861 -6.46,6.7021 -6.8497,6.7021 -0.3896,0 -2.3791,-1.711 -4.4211,-3.8021 z m 394.56311,-0.028 c -1.516,-2.1067 -5.9063,-8.8969 -9.7563,-15.0893 l -7,-11.2589 -5.5,0.5473 c -15.8395,1.576 -31.4016,-7.2141 -38.4885,-21.7398 -9.8828,-20.25665 -2.0023,-42.84745 18.4662,-52.93615 6.0281,-2.9711 7.2428,-3.2008 17.5,-3.3082 l 11.0223,-0.1154 6.2172,-7.8846 c 11.938,-15.1396 12.6295,-15.7355 17.5018,-15.0821 5.6773,0.7613 9.7828,5.1551 9.7767,10.4633 0,3.0951 -1.2871,5.4312 -7.5,13.6492 -4.1226,5.4532 -7.4957,10.3221 -7.4957,10.8198 0,0.4977 1.3971,2.9354 3.1046,5.4172 9.8137,14.2638 8.9812,34.0693 -1.9557,46.52565 -1.7319,1.9725 -3.1489,3.8679 -3.1489,4.2119 0,0.3441 3.4289,6.1049 7.6198,12.8019 9.4624,15.1207 10.1471,18.2416 5.1081,23.2806 -3.0132,3.0133 -4.198,3.528 -8.1216,3.528 -4.1791,0 -4.8425,-0.3458 -7.35,-3.8304 z m -13.3126,-49.5137 c 4.423,-2.92695 8.5743,-9.33295 9.566,-14.76155 0.6325,-3.462 0.4776,-3.7117 -3.8868,-6.2694 -2.5,-1.4652 -6.4754,-4.9054 -8.8342,-7.645 -6.2645,-7.276 -13.0354,-7.6583 -21.6475,-1.2223 -11.4583,8.5631 -8.1317,27.0807 5.8588,32.61315 0.825,0.3262 4.537,0.4364 8.2489,0.2447 5.2176,-0.2693 7.6443,-0.9409 10.6948,-2.9596 z m -289.27861,40.4049 c -12.5591,-4.8568 -23.2456,-9.2413 -23.7477,-9.7434 -0.9862,-0.9862 44.3158,-19.3174 47.7391,-19.3174 0.1889,0 0.3435,2.925 0.3435,6.5 v 6.5 h 36.75 36.7499 l 6.1604,-5.4955 6.1603,-5.4955 h 19.0897 c 10.4993,0 19.0896,0.2587 19.0896,0.5748 0,0.3162 -1.9768,3.6308 -4.3929,7.3657 -7.2997,11.2841 -7.1165,10.4499 -3.4735,15.82 1.7684,2.6067 4.2617,6.0115 5.5408,7.5662 1.2791,1.5547 2.3256,3.2422 2.3256,3.75 0,0.5318 -7.9498,0.9199 -18.75,0.9154 l -18.75,-0.01 -7.2966,-6.4922 -7.2967,-6.4921 h -35.9533 -35.9533 v 6.5 c 0,3.575 -0.3375,6.4755 -0.75,6.4456 -0.4125,-0.03 -11.0257,-4.028 -23.5849,-8.8848 z m -172.9646,0.1445 -3.7054,-3.7947 3.9288,-3.8364 3.9289,-3.8364 5.031,3.8811 c 2.767,2.1346 5.0385,4.1061 5.0478,4.3811 0.018,0.5386 -9.2572,7 -10.0485,7 -0.2625,0 -2.1447,-1.7076 -4.1826,-3.7947 z m -130.47802,-23.7621 c -2.92276,-2.0471 -3.10214,-7.9021 -0.28825,-9.4081 4.87309,-2.608 10.06574,0.094 10.06574,5.2369 0,2.7148 -3.1563,5.728 -6,5.728 -0.85524,0 -2.55511,-0.7006 -3.77749,-1.5568 z m 488.32833,-2.7876 c -1.403,-1.8395 -2.5509,-3.5783 -2.5509,-3.864 0,-0.2858 1.7669,-1.7441 3.9264,-3.2406 4.9942,-3.4609 7.0737,-7.872 7.0737,-15.00435 v -5.6512 l 5.25,0.3023 5.25,0.3023 -0.2842,6.5 c -0.4949,11.31575 -3.4874,17.29825 -10.8036,21.59765 -2.2484,1.3212 -4.3631,2.4023 -4.6993,2.4023 -0.3361,0 -1.7591,-1.505 -3.1621,-3.3444 z m -419.58889,-4.9056 c 2.39915,-6.7929 9.45689,-25.25465 11.35822,-29.71105 l 1.47665,-3.461 1.70667,3.961 c 2.53218,5.877 13.49651,33.51745 13.49651,34.02395 0,0.2404 -6.72576,0.4371 -14.94614,0.4371 h -14.94614 z m 448.79929,3.1876 c -5.5652,-2.9382 -6.9144,-5.6277 -6.5615,-13.0788 0.3229,-6.81585 1.2142,-7.72465 6.3193,-6.44335 1.8738,0.4702 2.4247,1.3652 2.6709,4.3385 0.257,3.10475 0.88,4.03065 3.6392,5.40845 1.831,0.9144 3.5391,1.8724 3.7958,2.1291 0.7646,0.7646 -3.9333,9.7122 -5.0742,9.6643 -0.5779,-0.024 -2.7332,-0.9325 -4.7895,-2.0182 z m -258.19741,-3.0661 c -4.7351,-3.7246 -2.362,-10.8715 3.6099,-10.8715 5.0439,0 7.8307,6.9685 4.0763,10.193 -3.0263,2.5991 -5.0207,2.7752 -7.6862,0.6785 z m 212.67511,-1.4279 c -2.9318,-4.4724 -2.8246,-5.7841 0.5775,-7.0683 1.8886,-0.7128 3.5375,-2.597 5.0051,-5.71915 1.8621,-3.9614 2.6196,-4.6561 5.0765,-4.6561 3.2855,0 4.1019,1.3942 4.1019,7.005 0,4.54425 -2.8849,8.44215 -8.6408,11.67455 l -3.8812,2.1797 z m -96.39471,-7.471 c -0.9839,-0.5744 -1.9199,-2.89495 -2.307,-5.71955 l -0.6512,-4.753 -7.943,0.3261 -7.943,0.3261 v -6.5643 c 0,-5.641 0.2461,-6.5437 1.75,-6.4177 4.8885,0.4097 6.25,-0.172 6.25,-2.6702 0,-2.25 -0.4,-2.5 -4,-2.5 h -4 v -5.9596 -5.9596 l 8.25,-0.2904 8.25,-0.2904 0.5,-5 0.5,-5 4.3239,-0.3112 c 5.6116,-0.4037 7.176,0.9989 7.176,6.4336 v 4.3776 h 8.5 8.5 v 6 6 h -4.5664 c -4.3916,0 -4.5543,0.1052 -4.25,2.75 0.3146,2.7336 0.6511,2.9075 6.0664,3.1346 2.687,0.1127 2.75,0.2552 2.75,6.218 v 6.1026 l -8.5001,-0.3526 -8.5001,-0.3526 10e-5,4.55 c 10e-5,2.5025 -0.5399,5.08995 -1.1999,5.74995 -1.4303,1.4303 -6.6295,1.5305 -8.9557,0.1726 z m -360.09423,-7.66195 c -0.9625,-0.2515 -1.75,-0.6854 -1.75,-0.9642 0,-0.5307 8.97985,-21.6974 13.40459,-31.5964 l 2.57019,-5.75 h 9.06884 9.06884 l 1.84139,4.25 c 7.46631,17.2326 13.04615,30.9817 13.04615,32.1466 0,1.6031 -6.12799,3.0149 -9.05468,2.086 -1.08199,-0.3434 -2.64887,-1.9425 -3.48197,-3.5535 l -1.51471,-2.9291 h -9.99907 c -9.96987,0 -10.0021,0.01 -11.03688,2.7296 -0.5708,1.5013 -1.57216,3.0694 -2.22525,3.4847 -1.26223,0.8026 -7.02122,0.8584 -9.93744,0.096 z m 28.25,-17.0413 c 0,-2.078 -4.46177,-11.102 -5.24872,-10.6156 -0.97666,0.6036 -4.75128,8.889 -4.75128,10.4292 0,0.5044 2.25,0.9171 5,0.9171 2.75,0 5,-0.3288 5,-0.7307 z m 89.40553,16.3451 c -0.2924,-0.7621 -0.3908,-3.3496 -0.2186,-5.75 l 0.3131,-4.3644 6.25,-0.2978 6.25,-0.2977 v -7.4045 -7.4046 l -6.25,-0.2977 -6.25,-0.2977 -0.2999,-5.75 -0.2999,-5.75 h 19.0499 19.0499 v 6 6 h -6 -6 v 7.5 7.5 h 6 6 v 6 6 h -18.5314 c -14.8698,0 -18.6365,-0.2738 -19.0631,-1.3856 z m -325.81848,-4.3607 c -0.32287,-0.3229 -0.58705,-2.978 -0.58705,-5.9001 v -5.3131 l 20.75,-0.2703 20.75,-0.2702 0.29772,-6.25 0.29772,-6.25 h -21.09998 -21.09998 l 0.30226,-5.25 c 0.21816,-3.7893 0.71963,-5.2875 1.80226,-5.3847 0.825,-0.074 4.9875,-0.1866 9.25,-0.25 l 7.75,-0.1153 v -7.5 -7.5 h 6 6 v 7.5 7.5 h 5.5 5.5 v -7.55 -7.5499 l 5.75,0.2999 5.75,0.3 -0.0645,12.25 c -0.0355,6.7375 -0.14861,17.9875 -0.25139,25 l -0.18689,12.75 -25.91154,0.1703 c -14.25136,0.094 -26.17573,-0.094 -26.49861,-0.4166 z m 64.16295,0.074 -3.75,-0.449 v -10.4396 -10.4396 h 6 6 v 5 5 h 4.5 4.5 v -5 -5 h 5.5 5.5 v 5 5 h 4.5 4.5 v -6.5 -6.5 h -20.5 -20.5 v -5.5 -5.5 h 20.45619 20.45619 l 0.29381,-7.25 0.29381,-7.25 5.75,-0.3 5.75,-0.2999 v 25.0499 c 0,13.7775 -0.1125,25.0842 -0.25,25.1261 -1.19843,0.3648 -46.12739,0.596 -49,0.2521 z m 61,-0.063 -4.75,-0.3745 v -5.4268 -5.4268 l 23.25,-0.2684 23.25,-0.2684 0.29772,-6.25 0.29772,-6.25 h -23.54772 -23.54772 v -5.5 -5.5 h 15.5 15.5 v -7.55 -7.5499 l 5.75,0.2999 5.75,0.3 -0.19773,7.2088 -0.19774,7.2089 7.69774,0.2911 7.69773,0.2912 0.27308,17.75 0.27307,17.75 -24.27307,-0.1803 c -13.3502,-0.099 -26.41058,-0.3488 -29.02308,-0.5548 z m 544.43084,-10.7649 0.4139,-6.5 h -2.7974 c -2.6488,0 -2.7974,-0.2391 -2.7974,-4.5 v -4.5 h 21.9649 c 20.6925,0 22.0248,0.112 23,1.9342 1.3178,2.4624 1.3378,6.7607 0.035,7.5658 -0.55,0.3399 -1,3.2914 -1,6.559 v 5.941 h -19.6165 -19.6166 z m 28.8192,-4.636 c 0,-1.9657 -0.3698,-2.0852 -4.6396,-1.5 -2.5517,0.3498 -6.3767,0.636 -8.5001,0.636 -2.7648,0 -3.8604,0.4257 -3.8604,1.5 0,1.2156 1.6111,1.5 8.5001,1.5 8.0136,0 8.5,-0.1223 8.5,-2.136 z m -283.50001,8.1676 c -18.5782,-0.7285 -22.6077,-2.8077 -29.132,-15.0316 -1.7718,-3.3198 -1.868,-7.0286 -1.868,-72 v -68.50005 l 2.651,-5 c 3.2931,-6.211 5.9912,-8.765 12.3614,-11.70115 l 4.9876,-2.29885 h 51.5 c 50.2482,0 51.6093,0.0511 56,2.10308 5.7137,2.67032 9.7266,6.68321 12.3969,12.39692 2.0616,4.41123 2.1085,5.80769 2.3806,70.79105 0.1758,42.012 -0.089,67.6528 -0.7238,70.0093 -2.2768,8.4554 -9.7799,16.0102 -18.0444,18.1687 -4.1224,1.0767 -72.2077,1.8588 -92.5093,1.0626 z m 18.1855,-24.206 2.3145,-2.1743 -0.015,-32.0757 c -0.01,-17.6416 -0.4019,-32.6856 -0.8742,-33.4311 -1.4303,-2.2572 -5.2484,1.0355 -18.7531,16.1723 -10.9615,12.2864 -12.4263,14.3434 -12.1601,17.0761 l 0.3027,3.1071 7.25,0.2938 7.25,0.2938 v 14.3836 c 0,14.3478 0.01,14.3888 2.6348,16.4562 3.5202,2.769 9.0446,2.7223 12.0507,-0.1018 z m -12.6855,-40.1314 c 0,-0.1681 1.125,-1.8305 2.5,-3.6942 l 2.5,-3.3886 v 3.6943 c 0,3.2739 -0.2845,3.6943 -2.5,3.6943 -1.375,0 -2.5,-0.1376 -2.5,-0.3058 z m 78,23.8058 v -5.5 h -22.4182 c -12.3301,0 -23.1301,0.2731 -24,0.6069 -1.0972,0.421 -1.5818,1.902 -1.5818,4.8334 0,2.3245 0.3,4.5263 0.6666,4.893 0.3667,0.3667 11.1667,0.6667 24,0.6667 h 23.3334 z m 0,-29.5 v -5 h -24 -24 v 5 5 h 24 24 z m 0,-37.5 v -5.50005 h -35.5497 c -38.5647,0 -38.9885,-0.0549 -43.362,-5.61488 -2.522,-3.20616 -2.665,-7.36765 -0.416,-12.10701 2.8989,-6.10898 4.0787,-6.27811 43.7955,-6.27811 h 35.5322 v -5.534 -5.53399 l -38.3302,0.28399 -38.3302,0.284 -4.8889,3.02366 c -7.2291,4.47105 -10.7656,10.0574 -11.2575,17.78285 -0.7464,11.72176 6.0201,21.01074 17.3068,23.75844 1.65,0.4017 19.3125,0.7764 39.25,0.8327 l 36.25,0.1024 z m -204.82571,105.1852 c -1.19588,-1.2729 -2.17432,-3.0032 -2.17432,-3.845 0,-4.3047 8.28136,-6.4331 12.77753,-3.2838 2.7631,1.9353 2.7963,3.4441 0.1499,6.8084 -2.7092,3.4442 -7.67934,3.5923 -10.75311,0.3204 z m 326.82561,-23.6268 v -20.9412 l -27.25,-0.3088 -27.2499,-0.3087 -5.1075,-2.6947 c -7.6516,-4.0368 -11.1596,-7.4239 -14.6955,-14.1888 l -3.197,-6.1165 -0.2949,-37.0925 c -0.2812,-35.358 -0.199,-37.34899 1.7579,-42.57933 2.3578,-6.30155 7.6574,-12.93223 13.0643,-16.34545 8.9217,-5.63205 7.4412,-5.55189 97.05641,-5.25542 l 82.4163,0.27265 5.0988,2.30811 c 5.7501,2.60293 12.1983,8.77297 15.2684,14.60987 3.8221,7.26672 4.2899,12.9852 3.9538,48.33237 l -0.321,33.7497 -2.7163,5.5 c -3.5798,7.2483 -9.992,13.7081 -16.7837,16.9084 l -5.5,2.5916 -38.1942,0.5 c -36.5895,0.4789 -38.2701,0.584 -40.0001,2.5 -0.9932,1.1 -5.8212,6.5 -10.72881,12 -12.2353,13.7122 -25.2616,27.5 -25.9812,27.5 -0.3277,0 -0.5958,-9.4236 -0.5958,-20.9413 z m 112.67221,-42.9969 c 7.9157,-3.594 7.8279,-3.1397 7.8279,-40.5179 0,-36.30351 0.065,-35.89092 -6.3195,-40.22446 -2.5362,-1.72158 -6.9585,-1.81949 -82.1806,-1.81949 -77.70431,0 -79.57651,0.0452 -82.88681,2 -6.9065,4.07833 -7.1131,5.24862 -7.1131,40.28405 0,25.7385 0.2644,31.8266 1.4849,34.1868 1.6011,3.0963 5.7942,6.4899 9.015,7.2964 1.1,0.2754 36.65,0.5431 79.00001,0.5948 73.5436,0.09 77.1874,0.01 81.1722,-1.8002 z m -136.48201,-15.0926 c -4.9952,-1.0262 -12.0536,-4.7353 -13.5228,-7.1062 -0.7832,-1.2637 -0.284,-2.5593 2.189,-5.6817 l 3.2036,-4.0448 5.4985,2.4317 c 6.3634,2.8142 11.6087,3.1217 13.9148,0.8157 2.9975,-2.9976 2.004,-3.8325 -9.9733,-8.3815 -9.7751,-3.7126 -12,-6.24876 -12,-13.67912 0,-6.11865 2.2182,-9.69691 8.0941,-13.05688 6.8244,-3.90242 20.706,-2.79178 26.9071,2.1528 l 2.7188,2.16785 -2.5376,3.73937 c -1.3957,2.05665 -2.713,4.26535 -2.9272,4.90821 -0.2712,0.81334 -1.9463,0.49919 -5.5078,-1.03292 -6.0259,-2.59228 -10.4901,-2.81912 -12.3106,-0.62554 -1.6802,2.02454 -0.6686,2.68749 8.2467,5.40427 11.0284,3.36068 15.5548,8.77736 14.5779,17.44476 -0.2723,2.4156 -1.526,5.8399 -2.7861,7.6095 -4.0303,5.66 -14.7608,8.7885 -23.7851,6.9345 z m 56.30981,-1.7929 c -5.47081,-2.6059 -9.26741,-6.3882 -11.47681,-11.4337 -4.2216,-9.6404 -3.4441,-20.10061 2.0587,-27.69702 8.69791,-12.00714 28.75161,-11.28384 34.82211,1.25596 2.5008,5.16601 2.6509,8.46114 0.5239,11.49792 -1.6264,2.32204 -9.4043,6.58534 -17.6779,9.68984 -2.6125,0.9803 -4.75,2.1609 -4.75,2.6235 0,0.4626 1.123,1.5769 2.4956,2.4762 2.7825,1.8232 7.0553,1.417 11.9484,-1.1358 2.8943,-1.51 3.0112,-1.4687 6.9296,2.4497 l 3.9856,3.9856 -2.4296,2.0761 c -4.6101,3.9394 -8.424,5.3575 -15.4296,5.7375 -5.3986,0.2927 -7.9151,-0.056 -11,-1.5258 z m 9.397,-29.29213 c 4.3016,-1.86053 4.3579,-1.94506 2.595,-3.89302 -2.4927,-2.75444 -7.0291,-2.54503 -10.0374,0.46335 -3.6858,3.68571 -3.116,7.16886 0.9731,5.94947 1.1398,-0.33988 4.051,-1.47379 6.4693,-2.5198 z m 40.7958,29.32863 c -1.3345,-1.4746 -1.6397,-4.5698 -1.7452,-17.6974 -0.1141,-14.19431 0.064,-16.05084 1.6534,-17.2129 2.4178,-1.7679 7.4699,-1.64173 10.1766,0.25416 2.123,1.48702 2.2225,2.20613 2.2225,16.06574 0,17.7777 -0.9517,20.3294 -7.595,20.3622 -1.7186,0.01 -3.8143,-0.7794 -4.7123,-1.7718 z m -0.5184,-43.5273 c -1.1958,-1.27295 -2.1743,-3.3184 -2.1743,-4.54545 0,-3.02668 4.3208,-7.1401 7.5,-7.1401 3.1153,0 7.5,4.09244 7.5,7 0,3.0538 -4.386,7 -7.7802,7 -1.7082,0 -3.7519,-0.93745 -5.0455,-2.31445 z m -408.17434,109.074 c -5.4184,-2.8384 -2.25478,-9.7595 4.46105,-9.7595 5.63128,0 9.71548,5.9487 6.12818,8.9259 -2.2074,1.8319 -7.83741,2.2751 -10.58923,0.8336 z m -96.34501,-15.5883 c -2.31703,-2.5603 -2.15586,-7.8328 0.27927,-9.1361 4.3695,-2.3384 10.06574,0.4712 10.06574,4.9649 0,2.7138 -3.47509,6 -6.34501,6 -1.28976,0 -3.08976,-0.823 -4,-1.8288 z m 51.70668,-13.9212 c -6.99882,-6.4625 -15.7899,-14.5092 -19.53574,-17.8816 l -6.81062,-6.1315 -12.79467,-0.3986 c -11.72027,-0.3652 -13.18233,-0.6258 -17.41099,-3.104 -3.42104,-2.0049 -5.28864,-4.0546 -7.21298,-7.9162 l -2.59667,-5.2108 0.01,-41.55369 0.01,-41.55366 2.3745,-5.0995 c 1.30597,-2.80472 3.74684,-6.0767 5.42416,-7.27105 7.2656,-5.17357 6.60209,-5.12946 77.1583,-5.12946 47.69847,0 66.65737,0.32187 69.12427,1.17354 5.2618,1.81658 9.7089,5.85198 12.4228,11.27281 l 2.4764,4.94635 v 65.38646 65.3865 l -5.3947,-4.8328 c -2.9672,-2.6581 -10.651,-9.6775 -17.0752,-15.5988 l -11.6804,-10.7659 -27.05078,0.2659 -27.0508,0.266 -0.10485,17.75 c -0.0577,9.7625 -0.43146,17.75 -0.83065,17.75 -0.39918,0 -6.4521,-5.2875 -13.45092,-11.75 z m -18.36167,-52.25 c 1.82796,-1.828 2,-3.3334 2,-17.50005 v -15.5 h 8.3 c 5.12222,0 8.75944,-0.45943 9.5,-1.2 1.71585,-1.71585 1.4809,-5.83212 -0.45499,-7.97126 -1.50926,-1.66771 -3.6225,-1.82874 -24,-1.82874 -21.01168,0 -22.46435,0.11934 -24.34501,2 -2.43335,2.43335 -2.54437,4.741 -0.34501,7.17126 1.3657,1.50908 3.20109,1.82874 10.5,1.82874 h 8.84501 v 15.5 c 0,14.16665 0.17204,15.67205 2,17.50005 1.1,1.1 2.9,2 4,2 1.1,0 2.9,-0.9 4,-2 z m 100.94803,-13.44468 c 1.5929,-1.69559 2.1165,-3.15102 1.709,-4.75 -0.9282,-3.64194 -30.2349,-39.45959 -32.86246,-40.16343 -3.77045,-1.00996 -19.77639,-0.72203 -21.86031,0.39325 -1.33513,0.71454 -1.93426,2.09749 -1.93426,4.46481 0,4.5273 2.00255,5.5 11.32306,5.5 h 7.45455 l 10.61122,12.57743 c 5.8361,6.91759 10.6112,12.90009 10.6112,13.29444 0,0.39436 -8.3252,0.52954 -18.50035,0.3004 -13.80556,-0.3109 -18.88089,-0.10078 -20,0.828 -1.49868,1.2438 -2.10698,8.0591 -0.83301,9.33307 0.36666,0.36666 12.21322,0.66666 26.32566,0.66666 h 25.659 z M 583.43922,619.50319 c 3.97806,-3.6001 1.18589,-11.36076 -4.07625,-11.3297 -3.15461,0.0186 -4.44214,0.81316 -5.94531,3.66894 -1.56358,2.97058 -1.47155,3.63686 0.92288,6.68088 2.39895,3.04978 6.34222,3.47444 9.09868,0.97988 z m -158.17126,97.65503 c -1.1,-1.1 -2,-3.239 -2,-4.7533 0,-1.7729 -1.08532,-3.7776 -3.04823,-5.6303 -3.70542,-3.4973 -3.49052,-5.3368 0.97508,-8.3461 1.87715,-1.265 4.22992,-3.6434 5.22838,-5.2852 2.13245,-3.5065 3.30094,-3.6633 7.34477,-0.9851 1.65,1.0927 4.4074,1.9897 6.12756,1.9934 4.56805,0.01 5.77214,1.9404 4.29164,6.8819 -0.94599,3.1574 -0.9398,4.6607 0.0288,6.9991 2.04557,4.9385 0.66704,7.1256 -4.49123,7.1256 -2.64559,0 -5.71772,0.7982 -7.68261,1.9962 -4.05173,2.4704 -4.30743,2.4705 -6.77417,0 z m -55.71031,-4.0857 c -17.5955,-8.7097 -17.47672,-31.9644 0.21031,-41.1719 11.18356,-5.822 26.8729,0.3043 31.94932,12.4754 4.74151,11.3682 -1.73749,25.7565 -13.34854,29.6441 -5.48608,1.8368 -14.05839,1.405 -18.81109,-0.9476 z m 15.17601,-10.3356 c 11.90641,-4.9748 5.85872,-23.5506 -6.88875,-21.1592 -8.00863,1.5025 -11.73991,12.5011 -6.25572,18.4398 3.89782,4.2209 7.6788,5.0031 13.14447,2.7194 z m 88.76326,0.752 c -2.4798,-0.9978 -4.22896,-6.231 -4.22896,-12.6525 0,-6.03 -0.2341,-6.6848 -3.84459,-10.7533 l -3.84458,-4.3323 -7.92826,1.7037 c -9.50702,2.0429 -15.18894,2.1323 -21.88257,0.3443 -11.48826,-3.0688 -20.93555,-10.7718 -26.6572,-21.73534 -3.22891,-6.18708 -3.34233,-6.79711 -3.32901,-17.90531 0.0123,-10.26722 0.29098,-12.08959 2.59956,-17 7.79306,-16.57606 26.41148,-26.20363 44.56184,-23.04287 8.30914,1.44697 12.21773,3.05986 18.38366,7.58607 14.65966,10.76118 19.70627,29.93924 12.54439,47.67105 -2.15579,5.33743 -2.48832,7.13196 -1.62165,8.75134 1.39168,2.60036 9.5226,6.73476 15.96034,8.11536 5.62006,1.2053 10.40982,4.1172 13.3898,8.1402 1.67033,2.2549 1.82306,3.1437 0.8915,5.1883 -0.61827,1.3569 -2.02549,2.9495 -3.12716,3.5391 -1.66391,0.8905 -2.61828,0.5318 -5.63696,-2.1186 -3.61774,-3.1764 -3.64807,-3.183 -6.81298,-1.4786 -1.74848,0.9416 -5.32106,3.543 -7.93907,5.7808 -4.40519,3.7654 -4.7119,4.3251 -4.11474,7.5083 0.97835,5.215 -2.70719,8.5637 -7.36336,6.6903 z m -19.80573,-49.11539 c 18.33403,-12.68941 4.47807,-41.11276 -17.19671,-35.27635 -4.75455,1.28027 -10.58188,5.91371 -12.7776,10.15978 -1.95171,3.77419 -1.84265,13.26923 0.2019,17.57779 4.9279,10.38478 20.1071,14.22836 29.77241,7.53878 z m 690.49041,40.88719 c -4.1841,-1.3622 -7.7379,-4.0822 -9.896,-7.5741 -1.6598,-2.6857 -2.0176,-4.9817 -2.0176,-12.9487 v -9.6843 l 5.25,0.3023 5.25,0.3023 0.5,7.1488 c 0.5881,8.4081 2.5326,11.3512 7.5,11.3512 4.9674,0 6.9119,-2.9431 7.5,-11.3512 l 0.5,-7.1488 h 5.5 5.5 v 9.0772 c 0,8.1556 -0.2701,9.485 -2.6608,13.0937 -1.4634,2.2091 -4.3066,4.7975 -6.3182,5.7521 -4.2564,2.0197 -12.8827,2.8921 -16.6074,1.6795 z m -10.7136,-44.30255 c -0.8378,-0.83777 -1.2,-6.25406 -1.2,-17.94329 0,-21.12984 -1.2122,-19.86202 18.9725,-19.84305 18.7363,0.0176 19.0317,0.10076 19.0122,5.35297 -0.025,6.77734 -0.2605,6.88971 -13.5931,6.48943 -10.6643,-0.32018 -11.8936,-0.17971 -12.1988,1.39394 -0.2977,1.53479 0.5375,1.75 6.7914,1.75 h 7.1308 l -0.3075,4.25 -0.3075,4.25 -6.4219,0.5 c -3.8643,0.30088 -6.5857,0.99782 -6.8333,1.75 -0.3144,0.9552 2.531,1.25 12.0649,1.25 13.5752,0 13.6903,0.0504 13.6903,6 0,6.11565 0.3548,6 -18.407,6 -12.039,0 -17.5527,-0.35972 -18.393,-1.2 z m -773.74874,-2.49156 c -1.32005,-1.32004 -1.57378,-2.8328 -1.15526,-6.88783 0.48543,-4.70335 0.21224,-5.67746 -2.87987,-10.26899 -1.87889,-2.78999 -3.41617,-5.77208 -3.41617,-6.62687 0,-1.95015 5.14813,-5.14235 9.6575,-5.98832 2.61222,-0.49005 4.27181,-1.82532 7.01583,-5.64481 2.33183,-3.24572 4.10283,-4.80775 5.04224,-4.44727 0.79641,0.30561 1.61458,0.55565 1.81818,0.55565 0.20359,0 1.75367,2.01086 3.44463,4.46857 2.39088,3.47503 4.01353,4.716 7.29804,5.5814 5.33578,1.40587 8.72358,3.55464 8.72358,5.53308 0,0.84531 -1.56298,3.58391 -3.47329,6.08577 -3.28031,4.29608 -3.44021,4.86541 -2.87779,10.24636 0.48737,4.66288 0.27164,6.02141 -1.18796,7.48101 -1.87778,1.87777 -3.4546,1.80404 -11.18221,-0.52291 -3.65322,-1.10007 -4.70068,-1.0425 -7.78393,0.4278 -4.50012,2.14596 -6.90297,2.14791 -9.04352,0.007 z m 138.70805,-6.35773 c -1.79196,-1.08975 -5.59839,-2.31573 -8.45873,-2.72439 -4.90403,-0.70065 -5.21797,-0.92094 -5.50488,-3.86267 -0.30212,-3.0977 -0.26362,-3.12472 5.47449,-3.84165 3.89572,-0.48674 6.71914,-1.51329 8.66464,-3.15032 l 2.88588,-2.42831 3.13963,1.95238 c 1.72679,1.07381 3.81462,3.11155 4.63962,4.52832 1.33333,2.28972 1.33333,2.86215 0,5.15187 -0.825,1.41677 -2.86857,3.42648 -4.54127,4.46604 -2.99158,1.85923 -3.0945,1.85774 -6.29938,-0.0913 z M 389.79242,591.79971 c -1.1573,-0.84624 -1.85779,-2.59637 -1.85779,-4.64155 0,-5.51638 6.98997,-8.24686 10.67834,-4.17126 4.95738,5.47784 -2.79233,13.22076 -8.82055,8.81281 z m 609.47547,-9.57039 c -2.475,-1.00942 -15.1231,-6.11682 -28.1069,-11.34979 l -23.6069,-9.51449 -7.8931,1.97362 c -11.1605,2.79064 -28.0862,2.81059 -39.393,0.0464 -21.7263,-5.31136 -39.1752,-17.48622 -51.7646,-36.11848 -18.5162,-27.404 -18.5396,-59.04952 -0.064,-86.6729 5.5941,-8.36378 17.0524,-19.4271 25.1349,-24.26835 7.0776,-4.23939 18.3502,-8.84452 26.6936,-10.90505 10.597,-2.61707 29.2648,-2.15277 41.2238,1.02531 37.3071,9.9142 62.74221,41.84628 62.76921,78.80258 0.012,16.3512 -4.73591,30.25949 -15.31271,44.8571 l -5.3959,7.44715 2.2553,5.05285 c 1.2404,2.77907 5.6142,12.26492 9.7196,21.07968 7.00341,15.03735 9.30761,20.53685 8.55811,20.4264 -0.1746,-0.0257 -2.3424,-0.87266 -4.81741,-1.88207 z m -76.4411,-32.48934 c 1.743,-1.27342 1.9758,-2.94828 2.281,-16.40753 l 0.3399,-14.98935 7.1601,-0.69083 c 3.9381,-0.37996 10.3101,-1.27705 14.1601,-1.99355 3.85,-0.7165 7.2011,-1.10865 7.4469,-0.87148 1.4558,1.40505 -6.2267,17.44564 -13.2156,27.5934 -0.9222,1.33896 -0.906,2.00281 0.073,2.98155 1.8158,1.81576 9.442,-2.44201 13.6789,-7.63702 4.4549,-5.4623 9.0606,-14.84214 10.6056,-21.59929 l 1.265,-5.53226 6.8782,-2.81894 c 11.7396,-4.81133 19.4053,-12.37955 15.994,-15.79079 -0.8853,-0.88532 -3.443,-0.24293 -10.6834,2.68321 -5.2358,2.11596 -9.7137,3.65302 -9.951,3.41569 -0.2374,-0.23734 -0.58,-6.8431 -0.7614,-14.67948 -0.2556,-11.03907 -0.043,-14.24765 0.9425,-14.24656 0.6998,7.8e-4 5.3214,1.6574 10.2701,3.68137 6.8909,2.81834 9.2727,3.40489 10.1724,2.50515 3.3828,-3.3828 -4.3928,-11.0919 -16.2749,-16.1356 l -6.4342,-2.73119 -2.6001,-7.04382 c -5.3534,-14.5029 -15.5934,-26.27449 -22.8561,-26.27449 -2.8773,0 -2.569,1.52451 1.4027,6.93505 3.9856,5.42948 10.5477,18.6727 10.5477,21.28674 0,2.08542 -0.247,2.11493 -5.4987,0.65698 -2.1992,-0.61054 -8.0492,-1.39553 -13,-1.74442 l -9.0013,-0.63435 -0.6513,-13.94123 c -0.5497,-11.7658 -0.9306,-14.14546 -2.4411,-15.25 -2.1009,-1.53618 -4.3167,-1.65094 -6.4076,-0.33186 -1.195,0.75387 -1.5658,3.9024 -1.8238,15.48468 l -0.3238,14.53841 h -6.3382 c -3.4861,0 -9.834,0.66885 -14.1066,1.48633 -4.2726,0.81747 -7.9322,1.32239 -8.1326,1.12202 -0.8733,-0.87332 5.4254,-14.42467 9.8674,-21.22908 5.1481,-7.88617 5,-9.38478 -0.784,-7.93308 -6.4775,1.62573 -18.6458,18.73239 -20.841,29.29889 -0.6065,2.91962 -1.6093,3.69393 -9.9985,7.72035 -11.8028,5.66476 -17.9644,12.27915 -14.2689,15.31736 0.8915,0.73297 3.9359,-0.0922 10.6159,-2.87756 5.1512,-2.14787 9.6512,-3.90553 10,-3.90589 0.3487,-3.7e-4 0.6341,6.52417 0.6341,14.49898 0,7.97481 -0.3942,14.50011 -0.876,14.50067 -0.4818,5.6e-4 -4.922,-1.61775 -9.8671,-3.59623 -7.9632,-3.18604 -9.1612,-3.42701 -10.4803,-2.10797 -3.5599,3.55998 4.7429,11.41717 16.6542,15.76024 l 5.7872,2.11014 1.6708,6.00941 c 3.3975,12.22038 11.3933,24.14311 18.6862,27.86367 3.7117,1.89357 6.925,1.77234 6.925,-0.26127 0,-0.55497 -1.5676,-3.14453 -3.4836,-5.75457 -3.3361,-4.54472 -9.6266,-17.00066 -11.0152,-21.81149 -0.5773,-1.99991 -0.3665,-2.22386 1.669,-1.7728 4.4427,0.98447 14.3629,2.45636 20.9902,3.11438 l 6.6605,0.6613 0.3395,14.97491 c 0.3049,13.44514 0.5379,15.11979 2.2807,16.3931 1.0676,0.78 2.4441,1.41818 3.0589,1.41818 0.6148,0 1.9912,-0.63818 3.0589,-1.41818 z m -19.0588,-43.27031 c -6.0685,-0.78656 -19.0487,-3.55459 -20.6556,-4.4048 -1.2726,-0.67335 -1.814,-3.01887 -2.3411,-10.14132 -0.6554,-8.85858 0.7683,-25.36794 2.3262,-26.97376 0.7797,-0.80366 15.5309,-3.32938 24.9205,-4.26689 l 6.25,-0.62404 v 23.54966 23.54965 l -3.75,-0.14983 c -2.0625,-0.0824 -5.1,-0.32481 -6.75,-0.53867 z m 21.4999,-22.59679 v -23.5702 l 5.75,0.47534 c 3.1625,0.26143 9.9415,1.17572 15.0643,2.03175 8.4612,1.41385 9.4151,1.79879 10.4149,4.20241 0.6353,1.52747 1.1191,9.33002 1.1446,18.45787 0.035,12.56037 -0.2458,15.99101 -1.3654,16.68297 -1.6973,1.04895 -16.0859,3.74799 -24.7584,4.6442 l -6.25,0.64587 z m 122.55581,92.01828 c -4.7205,-2.67379 -7.4995,-7.06266 -7.8202,-12.35025 l -0.2355,-3.88275 5.3696,-0.0386 c 4.3842,-0.0315 5.7147,-0.46475 7.25,-2.36078 1.0342,-1.2772 1.8804,-2.87759 1.8804,-3.55641 0,-2.62288 -3.9742,-4.81794 -9.2295,-5.09774 l -5.2705,-0.2806 -0.2957,-6.58293 -0.2957,-6.58294 h 6.5105 c 5.4133,0 6.685,-0.32598 7.5457,-1.93426 2.8641,-5.35166 0.5003,-8.03187 -7.7431,-8.77935 l -5.853,-0.53073 0.066,-6.09158 0.066,-6.09157 4.8051,0.29267 c 5.8166,0.35427 9.6949,-1.77853 9.6949,-5.33152 0,-3.51735 -3.5426,-5.53365 -9.7225,-5.53365 -5.883,0 -5.8063,0.1374 -4.6466,-8.32336 l 0.6308,-4.60251 4.3428,0.59524 c 5.6847,0.77919 9.3955,-1.45513 9.3955,-5.65724 0,-3.70353 -2.6524,-5.2429 -9.0337,-5.2429 -4.7144,0 -4.736,-0.0154 -5.237,-3.75084 -0.2767,-2.06296 -0.2765,-4.93604 4e-4,-6.38461 0.4581,-2.3963 0.9237,-2.63378 5.1644,-2.63378 5.5223,0 9.1059,-2.16453 9.1059,-5.5 0,-3.33835 -3.5834,-5.5 -9.1175,-5.5 -4.6695,0 -4.6726,-0.002 -5.0275,-3.75 -0.1952,-2.0625 -0.2126,-4.9875 -0.039,-6.5 0.2996,-2.60329 0.593,-2.75081 5.5,-2.76531 5.783,-0.0171 6.8581,-0.48563 8.5691,-3.73469 2.4827,-4.71442 -1.7848,-8.25 -9.9578,-8.25 h -5.2039 l 0.6792,-6.62909 c 1.01,-9.85872 3.5353,-13.77587 10.8515,-16.83277 3.1578,-1.31941 11.32,-1.53814 57.3977,-1.53814 52.493,0 53.815,0.0477 58.0462,2.09605 3.0069,1.45559 5.1658,3.51808 7.0657,6.75 l 2.7359,4.65395 0.2965,61.5 c 0.1631,33.825 -0.087,67.60721 -0.5549,75.07158 -0.9759,15.55673 -2.3587,18.715 -9.6427,22.02298 -3.8376,1.74287 -7.6042,1.86186 -59.0989,1.86702 l -55,0.006 z m 89.8792,-18.70825 c 3.0051,-1.14252 3.4199,-4.4227 0.9101,-7.19601 -1.5244,-1.68441 -3.756,-1.82874 -28.2775,-1.82874 -22.477,0 -26.9686,0.24241 -28.845,1.55671 -2.642,1.85054 -2.8357,4.10822 -0.5675,6.61455 1.5233,1.68328 3.7453,1.82874 27.9349,1.82874 14.6552,0 27.4146,-0.43139 28.845,-0.97525 z m 15.3651,-24.22475 c 1.8454,-1.84536 1.4241,-5.60972 -0.7585,-6.77782 -1.2862,-0.68833 -13.8948,-0.95789 -36.7263,-0.78518 l -34.7676,0.263 -0.9458,2.69026 c -2.0368,5.79337 -1.9331,5.80974 36.8207,5.80974 26.0269,0 35.4897,-0.31215 36.3775,-1.2 z m 0,-22.99999 c 1.8371,-1.83712 1.4279,-5.60768 -0.7342,-6.76481 -1.2246,-0.65535 -14.4078,-1.03519 -35.9286,-1.03519 -29.5706,0 -34.1988,0.2045 -35.5658,1.57143 -1.8715,1.87152 -2.0323,4.5677 -0.3714,6.22857 1.72,1.72002 70.88,1.72002 72.6,0 z m -4.719,-21.71175 c 4.4255,-0.10906 6.8454,-3.48869 4.9859,-6.96325 -1.1268,-2.10538 -1.4649,-2.125 -36.6235,-2.125 h -35.4863 l -1.11,2.43623 c -1.3487,2.96014 -0.5627,5.36369 2.0726,6.3378 1.5382,0.56859 47.0651,0.78481 66.1613,0.31422 z m 4.0903,-24.74323 c 2.4601,-2.22635 2.3051,-4.89794 -0.3938,-6.78831 -1.9021,-1.33227 -6.9122,-1.55458 -34.75,-1.54196 -34.4317,0.0156 -37.2129,0.3564 -37.8307,4.63564 -0.1668,1.15518 0.4279,2.83141 1.3214,3.72497 1.436,1.436 5.5841,1.62464 35.7245,1.62464 30.3269,0 34.3022,-0.18311 35.9286,-1.65498 z m -14,-23 c 2.1358,-1.93291 2.3721,-4.64918 0.5368,-6.17229 -0.8312,-0.68982 -11.126,-1.1726 -28.8687,-1.35381 -22.0393,-0.22509 -27.9045,-0.01 -29.2081,1.07216 -2.0638,1.71279 -2.0894,4.50795 -0.06,6.53749 1.3513,1.35126 5.3684,1.57143 28.6713,1.57143 23.8134,0 27.3216,-0.2007 28.9286,-1.65498 z M 744.76799,573.00046 c -1.1,-0.60329 -4.0874,-3.11084 -6.6387,-5.57232 -5.5516,-5.35628 -7.1454,-5.18728 -11.7666,1.24762 -2.8843,4.01636 -3.6317,4.4824 -7.1883,4.4824 -5.0909,0 -5.6216,-1.46675 -2.8565,-7.89434 2.6533,-6.16787 8.5622,-11.75467 13.3904,-12.66044 6.4289,-1.20608 10.1422,0.19886 14.79,5.59592 3.6605,4.2505 4.7881,4.95795 7.9033,4.95837 2.9628,4e-4 4.2923,-0.7286 7.2016,-3.94878 4.9708,-5.50216 8.9886,-7.38705 14.4368,-6.77296 3.6786,0.41464 5.3286,1.37748 9.6157,5.61138 6.7046,6.62125 9.5751,6.80957 15.1593,0.99447 6.3155,-6.57656 13.3388,-8.57057 19.2526,-5.46604 1.4852,0.77967 4.4792,3.25467 6.6533,5.5 5.7889,5.97845 8.7581,5.68818 15.4587,-1.51121 4.542,-4.8801 5.5487,-5.50765 7.8916,-4.91961 4.9791,1.24966 5.3593,2.26005 2.7693,7.35928 -3.1571,6.21598 -6.6805,9.84689 -11.8184,12.17903 -8.2297,3.73555 -15.257,2.14069 -22.2862,-5.05793 -2.1306,-2.18193 -4.3692,-3.96714 -4.9747,-3.96714 -0.6055,0 -2.6517,1.62995 -4.5471,3.62211 -9.1703,9.63857 -22.9491,9.53378 -30.7426,-0.2338 -1.487,-1.86354 -3.4028,-3.38826 -4.2574,-3.38828 -0.8546,-10e-6 -3.1046,1.62992 -5,3.62208 -1.8954,1.99217 -5.2461,4.45728 -7.4461,5.47804 -4.4402,2.06018 -11.9219,2.43034 -15,0.74215 z M 427.76796,562.74501 c -9.12316,-1.774 -19.11803,-5.62097 -26.80673,-10.31776 -11.12702,-6.79716 -24.02487,-21.1415 -30.5522,-33.97864 l -2.14045,-4.20954 -8.25031,-0.29045 -8.25031,-0.29045 -0.29206,-7.75 -0.29207,-7.75 h 6.1587 c 5.89879,0 6.13325,-0.0949 5.55572,-2.25 -0.33164,-1.2375 -0.60912,-3.2625 -0.61663,-4.5 -0.0125,-2.05895 -0.48067,-2.25 -5.51366,-2.25 h -5.5 v -7.5 -7.5 h 5.30252 5.30252 l 1.02424,-5 1.02424,-5 h -6.36883 -6.36882 l 0.29207,-7.75 0.29206,-7.75 9,-0.30702 9,-0.30702 3.43933,-5.97794 c 13.68604,-23.78786 36.89422,-38.18042 65.24622,-40.46245 19.11784,-1.53878 45.05442,6.10483 57.23241,16.86661 l 3.60733,3.18782 -6.15563,7 c -3.3856,3.85 -6.54157,7.1501 -7.01326,7.33354 -0.4717,0.18345 -2.54486,-0.996 -4.60702,-2.62099 -10.01119,-7.88888 -23.58955,-12.21255 -38.35317,-12.21255 -17.46341,0 -30.36362,5.392 -42.95919,17.95599 -12.80355,12.77143 -18.17635,25.47967 -18.19817,43.04401 -0.0219,17.62294 5.73959,31.78469 17.7512,43.63247 21.65989,21.36447 55.02121,24.30608 81.00995,7.14299 l 6,-3.96243 4.25373,4.69435 c 2.33955,2.58189 5.16523,5.97443 6.27928,7.53897 l 2.02556,2.84463 -5.27929,3.98544 c -6.97481,5.26542 -18.39756,10.59639 -28.27928,13.19787 -10.20956,2.68779 -28.26093,3.4063 -38,1.51255 z m 123.49353,-14.5044 c -7.21951,-2.24443 -11.90856,-6.24151 -14.4458,-12.31398 -1.33135,-3.18635 -1.54773,-11.16332 -1.54773,-57.05702 V 425.5168 l 2.75,-5.42931 c 2.07846,-4.10349 3.82817,-6.01931 7.16517,-7.84535 l 4.41516,-2.41604 70.58484,0.0925 c 43.20516,0.0566 71.57646,0.47077 73.14116,1.06766 4.1924,1.59924 9.1063,6.32055 11.064,10.63052 1.3501,2.97222 1.8416,6.48848 1.8577,13.29137 l 0.022,9.25 h -7.5147 c -7.1607,0 -7.6906,0.16115 -11.25,3.42127 l -3.7353,3.42126 -0.3024,21.85312 c -0.2967,21.44581 -0.2591,21.91791 2.02,25.32874 3.1556,4.72275 8.0041,6.97216 15.0324,6.97406 l 5.75,0.002 v 13.53211 c 0,17.93463 -1.9631,22.6827 -11.5,27.8152 -3.9734,2.13835 -4.4562,2.15389 -72.49999,2.33352 -37.675,0.0995 -69.62791,-0.16981 -71.00647,-0.59839 z m 72.17773,-17.73743 c 1.40562,-1.27207 1.82874,-3.12305 1.82874,-8 v -6.34502 h 6.67126 c 7.55169,0 10.32874,-1.60108 10.32874,-5.95497 0,-4.1504 -1.72008,-5.04502 -9.7,-5.04502 h -7.3 v -6.97694 c 0,-6.25631 -0.24728,-7.13898 -2.39411,-8.54563 -3.11669,-2.04213 -7.02237,-1.05354 -8.48042,2.14654 -0.61901,1.35858 -1.12547,4.94774 -1.12547,7.97592 v 5.50577 l -6.49722,-0.21033 c -7.09493,-0.22969 -10.50278,1.53248 -10.50278,5.43092 0,4.1668 2.78051,5.67374 10.4688,5.67374 h 7.15882 l -0.42589,5.88792 c -0.36163,4.9994 -0.10717,6.20664 1.68619,8 2.53495,2.53495 5.78892,2.71451 8.28334,0.4571 z m -0.14377,-56.03495 c 2.75376,-1.88218 29.23797,-21.72875 52.97254,-39.6962 8.525,-6.45357 15.9166,-12.62996 16.4258,-13.7253 1.3371,-2.87637 -3.2364,-7.40083 -6.4501,-6.38086 -1.8954,0.60157 -41.84697,30.20671 -60.97573,45.18454 -3.025,2.36858 -5.83873,4.30679 -6.25273,4.30713 -0.414,3.5e-4 -10.38767,-7.53687 -22.16371,-16.74937 -36.11849,-28.25579 -41.27202,-32.19322 -43.00856,-32.85959 -1.98502,-0.76172 -6.575,3.13906 -6.575,5.58774 0,0.89624 1.4625,3.01322 3.25,4.70441 3.86378,3.6556 59.92383,46.82132 64.25,49.47191 3.71944,2.27885 5.37678,2.30909 8.52749,0.15559 z m 177.97254,61.68812 c -1.925,-1.05489 -6.8334,-3.32854 -10.9074,-5.05255 -6.5501,-2.77178 -7.5107,-2.95002 -8.2997,-1.5401 -1.254,2.24069 -8.3744,2.16467 -9.6435,-0.10294 -0.855,-1.52785 -1.9681,-1.22819 -11.1437,3 -5.6066,2.58357 -10.6015,4.6974 -11.0998,4.6974 -0.4983,0 -0.9059,-5.36218 -0.9059,-11.91597 v -11.91596 l 3.75,-2.91501 c 2.0625,-1.60326 6.3247,-4.45358 9.4716,-6.33403 l 5.7216,-3.41902 0.028,-13.25 c 0.016,-7.2875 -0.1413,-13.25 -0.3486,-13.25 -0.2074,0 -5.4949,2.44873 -11.75,5.44163 -6.2552,2.99289 -12.6105,5.74167 -14.123,6.1084 l -2.75,0.66679 v -6.5626 -6.5626 l 4.4678,-3.41139 c 4.7119,-3.5978 5.0573,-5.21055 0.7665,-3.57922 -3.6123,1.37339 -4.3889,0.0839 -4.0385,-6.70526 l 0.3042,-5.89575 3.75,-0.31036 c 3.7137,-0.30736 3.75,-0.35271 3.75,-4.67857 0,-5.09583 1.9025,-7.51107 5.9164,-7.51107 3.8553,0 5.8995,2.6912 6.2689,8.25277 l 0.3147,4.73828 3.8819,-3.56536 3.8819,-3.56536 -0.6638,-9.18016 c -1.3208,-18.26569 3.6381,-30.34313 11.6345,-28.33616 1.5442,0.38756 3.24,2.2787 4.8217,5.37691 2.1907,4.29118 2.4742,6.25941 2.7763,19.27908 0.3321,14.30517 0.3724,14.52975 3.002,16.71404 1.466,1.21772 3.003,2.23022 3.4155,2.25 0.4125,0.0198 0.75,-2.12404 0.75,-4.76404 0,-5.61998 1.224,-7.2 5.5776,-7.2 4.2,0 5.8898,2.25433 5.6594,7.54989 -0.188,4.31823 -0.1765,4.33327 3.5372,4.64119 l 3.7258,0.30892 0.2969,6.80412 0.297,6.80412 -3.797,-0.67337 -3.7969,-0.67337 4.25,4.4071 c 3.9896,4.13711 4.25,4.75706 4.25,10.11925 0,4.77943 -0.2857,5.7096 -1.75,5.69654 -0.9625,-0.009 -7.0375,-2.60086 -13.5,-5.76062 l -11.75,-5.74501 0.072,13.01062 0.072,13.01062 8.928,5.86885 8.9281,5.86884 v 12.88115 c 0,7.08463 -0.1125,12.86229 -0.25,12.83924 -0.1375,-0.0231 -1.825,-0.90501 -3.75,-1.9599 z M 402.03208,512.40817 c -2.55254,-2.88963 -5.76412,-9.56738 -5.76412,-11.98519 v -2.26481 h 39.91131 39.91131 l -0.28221,4.25 c -0.15522,2.3375 -0.34031,5.9375 -0.41131,8 l -0.1291,3.75 h -35.84501 c -32.88254,0 -35.97277,-0.14463 -37.39087,-1.75 z m 295.55121,-17.23344 c -1.2015,-0.49706 -2.664,-1.79954 -3.25,-2.89441 -1.2291,-2.29657 -1.4602,-34.95245 -0.2608,-36.84017 0.4257,-0.66991 3.3527,-1.4311 6.5044,-1.69154 l 5.7305,-0.47353 -0.2697,21.19155 -0.2697,21.19154 -3,0.21016 c -1.65,0.11558 -3.9831,-0.19654 -5.1847,-0.6936 z m -304.89647,-7.36741 c -0.2898,-0.7552 -0.39009,-4.0227 -0.22288,-7.26112 l 0.30402,-5.88803 41.5377,-0.2608 41.53769,-0.2608 -0.23348,7.2608 -0.23347,7.2608 -41.08134,0.26112 c -34.0839,0.21664 -41.17109,0.0272 -41.60824,-1.11197 z m 109.78114,-18.84915 c -2.82807,-2.82807 -0.24928,-8.8 3.8,-8.8 4.04928,0 6.62807,5.97193 3.8,8.8 -0.66,0.66 -2.37,1.2 -3.8,1.2 -1.43,0 -3.14,-0.54 -3.8,-1.2 z M 397.3235,459.5286 c 3.10744,-7.24935 5.25654,-10.41204 7.43439,-10.94064 1.10554,-0.26834 17.53507,-0.36231 36.51007,-0.20884 l 34.5,0.27905 v 7.74419 7.74419 l -40.21446,0.006 -40.21446,0.006 z"
       id="path1"
       clip-path="url(#clipPath1)"
       transform="matrix(0.26666667,0,0,0.26666667,-222.10674,-107.84988)" />
  </g>
</svg>
